<svg width="1310" height="1310" viewBox="0 0 1310 1310" fill="none" xmlns="http://www.w3.org/2000/svg">
<path d="M1310 1001.89H0V1002.54H1310V1001.89Z" fill="#EBEBEB"/>
<path d="M1178.74 1044.04H1121.94V1044.7H1178.74V1044.04Z" fill="#EBEBEB"/>
<path d="M903.035 1030.47H813.667V1031.13H903.035V1030.47Z" fill="#EBEBEB"/>
<path d="M1155.73 1019.73H1039.07V1020.39H1155.73V1019.73Z" fill="#EBEBEB"/>
<path d="M453.313 1032.94H424.126V1033.59H453.313V1032.94Z" fill="#EBEBEB"/>
<path d="M400.781 1032.94H300.199V1033.59H400.781V1032.94Z" fill="#EBEBEB"/>
<path d="M246.306 1021.88H173.732V1022.53H246.306V1021.88Z" fill="#EBEBEB"/>
<path d="M620.94 885.036H115.044C111.081 885.029 107.283 883.45 104.483 880.645C101.683 877.84 100.11 874.039 100.11 870.076V158.929C100.145 154.989 101.733 151.221 104.529 148.445C107.325 145.668 111.104 144.107 115.044 144.1H620.94C624.908 144.1 628.713 145.676 631.519 148.482C634.324 151.287 635.9 155.093 635.9 159.06V870.076C635.9 874.044 634.324 877.849 631.519 880.654C628.713 883.46 624.908 885.036 620.94 885.036V885.036ZM115.044 144.624C111.255 144.631 107.623 146.141 104.946 148.823C102.269 151.505 100.765 155.14 100.765 158.929V870.076C100.765 873.865 102.269 877.5 104.946 880.182C107.623 882.864 111.255 884.374 115.044 884.381H620.94C624.732 884.374 628.367 882.865 631.048 880.184C633.729 877.502 635.238 873.868 635.245 870.076V158.929C635.238 155.137 633.729 151.503 631.048 148.822C628.367 146.14 624.732 144.631 620.94 144.624H115.044Z" fill="#EBEBEB"/>
<path d="M1187.67 885.036H681.75C677.785 885.029 673.984 883.451 671.179 880.647C668.375 877.843 666.797 874.041 666.79 870.076V158.929C666.831 154.986 668.425 151.219 671.225 148.443C674.026 145.667 677.807 144.107 681.75 144.1H1187.67C1191.61 144.114 1195.38 145.678 1198.17 148.454C1200.96 151.23 1202.55 154.993 1202.58 158.929V870.076C1202.58 874.035 1201.01 877.832 1198.22 880.636C1195.42 883.44 1191.63 885.022 1187.67 885.036V885.036ZM681.75 144.624C677.958 144.631 674.324 146.14 671.643 148.822C668.961 151.503 667.452 155.137 667.445 158.929V870.076C667.452 873.868 668.961 877.502 671.643 880.184C674.324 882.865 677.958 884.374 681.75 884.381H1187.67C1191.46 884.374 1195.1 882.865 1197.78 880.184C1200.46 877.502 1201.97 873.868 1201.98 870.076V158.929C1201.97 155.137 1200.46 151.503 1197.78 148.822C1195.1 146.14 1191.46 144.631 1187.67 144.624H681.75Z" fill="#EBEBEB"/>
<path d="M566.104 526.306L567.283 491.879L546.166 484.962C545.258 473.295 543.365 461.726 540.506 450.378L558.427 437.278L546.27 404.947L524.105 406.729C518.85 396.312 512.714 386.364 505.765 376.992L517.241 357.84L493.661 332.662L473.854 342.801C464.947 335.187 455.43 328.318 445.4 322.26L448.597 300.252L417.157 285.999L402.747 302.872C391.63 299.316 380.238 296.687 368.687 295.012L363.447 273.45L328.915 272.271L322.103 293.414C310.448 294.33 298.889 296.214 287.545 299.047L274.236 281.231L241.905 293.309L243.687 315.474C233.275 320.809 223.328 327.006 213.95 333.998L194.666 322.26L169.383 345.84L179.523 365.752C171.907 374.614 165.07 384.116 159.087 394.153L137.105 390.852L122.747 422.292L139.725 436.676C136.144 447.785 133.514 459.18 131.865 470.736L110.04 476.211L108.861 510.638L130.083 517.555C130.961 529.215 132.846 540.777 135.716 552.113L117.796 565.213L129.979 597.57L152.144 595.788C157.386 606.212 163.522 616.162 170.484 625.525L158.982 644.677L182.562 669.856L202.369 659.716C211.253 667.328 220.752 674.19 230.77 680.231L227.469 702.213L258.909 716.492L273.397 699.619C284.514 703.207 295.905 705.879 307.457 707.61L312.697 729.172L347.229 730.351L354.041 709.208C365.704 708.281 377.271 706.397 388.625 703.575L401.725 721.391L434.056 709.313L432.379 687.148C442.771 681.779 452.715 675.584 462.116 668.624L481.163 680.1L506.446 656.52L496.307 636.608C503.925 627.747 510.762 618.245 516.743 608.207L538.725 611.508L553.082 580.068L536.105 565.658C539.746 554.557 542.42 543.161 544.096 531.598L566.104 526.306ZM333.474 637.839C306.456 636.926 280.316 628.021 258.361 612.25C236.405 596.479 219.62 574.55 210.129 549.238C200.637 523.926 198.867 496.368 205.04 470.049C211.213 443.731 225.054 419.834 244.811 401.383C264.567 382.931 289.352 370.754 316.031 366.39C342.71 362.027 370.083 365.674 394.688 376.871C419.294 388.067 440.026 406.309 454.262 429.29C468.498 452.271 475.599 478.958 474.666 505.975C473.422 542.182 457.85 576.413 431.373 601.141C404.896 625.869 369.682 639.069 333.474 637.839V637.839Z" fill="#EBEBEB"/>
<path d="M1155.42 412.44L1164.09 404.345L1160.66 397.506C1163.28 394.442 1165.64 391.165 1167.71 387.708L1175.31 388.834L1180.21 377.987L1174.39 373.036C1175.64 369.201 1176.56 365.265 1177.14 361.272L1184.61 359.412L1184.97 347.517L1177.69 345.159C1177.37 341.13 1176.72 337.135 1175.75 333.212L1181.91 328.627L1177.72 317.492L1170.09 318.094C1168.25 314.503 1166.12 311.068 1163.73 307.824L1167.68 301.274L1159.53 292.575L1152.72 296.06C1149.65 293.448 1146.38 291.091 1142.92 289.012L1144.02 281.414L1133.2 276.462L1128.22 282.305C1124.38 281.109 1120.45 280.232 1116.46 279.685L1114.6 272.244L1102.71 271.799L1100.32 279.135C1096.31 279.442 1092.33 280.09 1088.43 281.074L1083.87 274.917L1072.71 279.082L1073.34 286.733C1069.73 288.553 1066.3 290.684 1063.07 293.099L1056.46 289.143L1047.76 297.239L1051.14 303.92C1048.51 306.975 1046.14 310.254 1044.07 313.719L1036.5 312.592L1031.57 323.439L1037.42 328.417C1036.2 332.246 1035.33 336.174 1034.8 340.155L1027.3 342.015L1026.94 353.91L1034.25 356.268C1034.54 360.297 1035.18 364.294 1036.16 368.215L1029.97 372.774L1034.17 383.909L1041.82 383.332C1043.66 386.924 1045.79 390.358 1048.18 393.603L1044.23 400.153L1052.38 408.851L1059.19 405.366C1062.25 407.987 1065.53 410.345 1068.99 412.414L1067.86 419.986L1078.71 424.938L1083.68 419.121C1087.53 420.306 1091.46 421.182 1095.45 421.741L1097.31 429.182L1109.2 429.628L1111.59 422.292C1115.6 421.987 1119.58 421.338 1123.48 420.353L1128.04 426.51L1139.2 422.344L1138.6 414.694C1142.19 412.87 1145.62 410.74 1148.84 408.327L1155.42 412.44ZM1093.54 362.32C1091.25 359.868 1089.74 356.793 1089.2 353.484C1088.66 350.174 1089.11 346.779 1090.5 343.727C1091.89 340.675 1094.16 338.104 1097.01 336.34C1099.86 334.575 1103.17 333.696 1106.52 333.813C1109.87 333.931 1113.11 335.039 1115.84 336.999C1118.56 338.959 1120.64 341.682 1121.81 344.823C1122.98 347.964 1123.2 351.383 1122.43 354.647C1121.66 357.911 1119.94 360.873 1117.48 363.158C1115.85 364.694 1113.94 365.891 1111.84 366.681C1109.75 367.47 1107.52 367.837 1105.28 367.759C1103.05 367.681 1100.85 367.16 1098.81 366.226C1096.78 365.293 1094.95 363.965 1093.43 362.32H1093.54Z" fill="#EBEBEB"/>
<path d="M838.4 765.931L811.309 747.198C808.654 737.443 805.002 727.987 800.41 718.98L807.353 691.732L768.053 649.655L740.386 654.712C731.706 649.512 722.514 645.218 712.955 641.9V641.9L696.134 613.578L638.494 611.613L619.787 638.704C610.044 641.357 600.598 645.001 591.596 649.577L564.348 642.634L522.271 681.934L527.328 709.548C522.132 718.246 517.848 727.456 514.542 737.032L486.22 753.853L484.255 811.493L511.372 830.199C513.983 840.007 517.628 849.51 522.245 858.548V858.548L515.223 885.56L554.523 927.637L582.007 922.607C590.752 927.813 600.005 932.114 609.622 935.445V935.445L626.416 963.715L684.056 965.706L702.737 938.615C712.567 935.96 722.101 932.308 731.19 927.716L758.281 934.633L800.384 895.333L795.327 867.718C800.539 859.02 804.824 849.799 808.113 840.208V840.208L836.435 823.387L838.4 765.931ZM659.061 853.413C646.265 852.975 633.886 848.753 623.49 841.281C613.093 833.809 605.145 823.422 600.651 811.433C596.158 799.444 595.32 786.392 598.243 773.926C601.167 761.461 607.721 750.143 617.077 741.402C626.433 732.662 638.17 726.892 650.805 724.822C663.44 722.752 676.405 724.474 688.061 729.772C699.717 735.07 709.541 743.705 716.289 754.586C723.038 765.466 726.409 778.103 725.976 790.899C725.375 808.061 717.988 824.283 705.437 836.004C692.887 847.724 676.198 853.985 659.035 853.413H659.061Z" fill="#EBEBEB"/>
<path d="M900.101 602.6H899.918L854.54 601.054C853.621 601.037 852.72 600.788 851.923 600.33C851.126 599.872 850.458 599.22 849.981 598.434L837.745 577.867C831.151 575.455 824.77 572.492 818.672 569.011L799.1 572.391C798.189 572.558 797.249 572.492 796.37 572.199C795.491 571.906 794.699 571.395 794.07 570.715L763.075 537.545C762.425 536.858 761.963 536.015 761.733 535.097C761.504 534.179 761.515 533.218 761.765 532.305L766.717 512.891C763.649 506.6 761.142 500.051 759.224 493.32L739.495 479.696C738.73 479.17 738.111 478.46 737.694 477.631C737.277 476.802 737.077 475.881 737.111 474.953L738.657 429.575C738.688 428.659 738.943 427.764 739.4 426.97C739.856 426.175 740.501 425.504 741.277 425.016L761.896 412.781C764.274 406.202 767.229 399.845 770.726 393.786L767.11 374.057C766.941 373.141 767.006 372.198 767.299 371.314C767.593 370.43 768.104 369.634 768.787 369.001L801.956 338.032C802.642 337.379 803.484 336.914 804.402 336.68C805.319 336.446 806.282 336.451 807.196 336.696L826.689 341.674C832.964 338.605 839.495 336.089 846.208 334.155L859.832 314.426C860.339 313.642 861.045 313.008 861.879 312.589C862.713 312.17 863.643 311.981 864.574 312.042L909.926 313.614C910.849 313.633 911.751 313.883 912.552 314.341C913.353 314.799 914.026 315.449 914.511 316.234L926.747 336.827C933.295 339.231 939.623 342.194 945.663 345.683L965.47 342.041C966.382 341.872 967.322 341.937 968.202 342.23C969.082 342.523 969.873 343.035 970.501 343.718L1001.5 376.887C1002.14 377.577 1002.6 378.42 1002.83 379.337C1003.06 380.254 1003.05 381.214 1002.81 382.127L997.827 401.594C1000.9 407.872 1003.42 414.402 1005.37 421.112L1025.08 434.736C1025.84 435.262 1026.46 435.972 1026.88 436.801C1027.29 437.63 1027.49 438.551 1027.46 439.479L1025.91 484.831C1025.88 485.751 1025.63 486.649 1025.17 487.448C1024.71 488.247 1024.07 488.922 1023.29 489.416L1002.67 501.651C1000.28 508.216 997.327 514.562 993.845 520.62L997.461 540.375C997.63 541.287 997.565 542.227 997.272 543.107C996.979 543.986 996.467 544.777 995.784 545.405L962.405 576.4C961.718 577.05 960.875 577.513 959.957 577.742C959.039 577.972 958.077 577.961 957.165 577.71L937.777 572.758C931.46 575.813 924.895 578.329 918.153 580.277L904.66 599.98C904.174 600.758 903.504 601.403 902.709 601.86C901.914 602.317 901.018 602.571 900.101 602.6V602.6ZM857.946 590.102L897.246 591.439L910.346 572.601C911.071 571.501 912.185 570.716 913.463 570.4C920.836 568.384 927.989 565.637 934.816 562.2V562.2C936.007 561.626 937.36 561.487 938.642 561.806L956.982 566.496L985.802 539.641L982.5 520.699C982.246 519.375 982.488 518.003 983.182 516.847C987.073 510.36 990.278 503.484 992.745 496.333C993.161 495.036 994.037 493.937 995.207 493.241L1014.94 481.556L1016.27 442.256L997.408 429.156C996.415 428.477 995.67 427.493 995.286 426.352C995.286 426.221 995.286 426.064 995.286 425.907C993.267 418.665 990.529 411.644 987.112 404.947C986.506 403.748 986.356 402.37 986.692 401.07L991.408 382.52L964.553 353.7L945.716 357.158C944.4 357.397 943.043 357.155 941.89 356.477C935.39 352.578 928.507 349.356 921.35 346.862C920.939 346.73 920.544 346.554 920.171 346.338C919.416 345.866 918.786 345.219 918.337 344.451L906.52 324.67L867.22 323.308L854.12 342.198C853.339 343.306 852.186 344.096 850.872 344.425C843.575 346.419 836.5 349.149 829.755 352.573C828.565 353.18 827.195 353.329 825.903 352.992L807.353 348.276L778.533 375.131L781.992 393.917C782.197 395.102 782.023 396.321 781.494 397.401L781.232 397.847C777.335 404.359 774.13 411.261 771.669 418.44C771.235 419.671 770.382 420.71 769.259 421.375L749.53 433.086L748.194 472.386L767.084 485.486C768.161 486.223 768.941 487.319 769.285 488.578C771.249 495.935 773.98 503.065 777.433 509.852C777.62 510.238 777.769 510.642 777.878 511.057C778.076 511.919 778.076 512.815 777.878 513.677L773.163 532.017L800.018 560.837L818.724 557.405C820.031 557.166 821.381 557.408 822.523 558.086C829.073 561.978 835.999 565.199 843.195 567.701C844.493 568.087 845.592 568.96 846.26 570.138L857.946 590.102ZM882.233 540.401C881.264 540.401 880.294 540.401 879.325 540.401C857.545 540.018 836.798 531.047 821.6 515.442C806.401 499.837 797.982 478.861 798.174 457.078C798.365 435.296 807.153 414.471 822.623 399.136C838.094 383.801 858.996 375.197 880.779 375.197C902.562 375.197 923.464 383.801 938.934 399.136C954.405 414.471 963.193 435.296 963.384 457.078C963.576 478.861 955.157 499.837 939.958 515.442C924.76 531.047 904.013 540.018 882.233 540.401ZM882.233 385.585C863.2 385.914 845.067 393.747 831.782 407.38C818.497 421.013 811.135 439.343 811.299 458.378C811.463 477.413 819.14 495.613 832.658 509.015C846.177 522.417 864.442 529.937 883.478 529.937C902.513 529.937 920.778 522.417 934.297 509.015C947.815 495.613 955.492 477.413 955.656 458.378C955.82 439.343 948.458 421.013 935.173 407.38C921.888 393.747 903.755 385.914 884.722 385.585H882.233Z" fill="#EBEBEB"/>
<path d="M1004.61 275.938L985.801 270.908L980.771 252.096L988.133 244.76L995.888 260.821L1011.97 268.602L1004.61 275.938Z" fill="#E0E0E0"/>
<path d="M1005.77 263.363C1006.58 262.549 1007.22 261.583 1007.67 260.52C1008.11 259.457 1008.33 258.317 1008.33 257.166C1008.33 256.015 1008.11 254.876 1007.67 253.813C1007.22 252.75 1006.58 251.784 1005.77 250.97C1004.95 250.156 1003.99 249.511 1002.92 249.07C1001.86 248.63 1000.72 248.403 999.569 248.403C998.419 248.403 997.279 248.63 996.216 249.07C995.153 249.511 994.187 250.156 993.373 250.97L1002.73 236.927L1015.25 243.267L1018 256.367L1005.77 263.363Z" fill="#E0E0E0"/>
<path d="M986.64 246.28L1000.42 232.499L1019.18 237.503L1024.24 256.288L1010.46 270.07L991.67 265.013L986.64 246.28ZM1011.66 257.546C1012.89 256.318 1013.72 254.754 1014.06 253.052C1014.4 251.35 1014.22 249.585 1013.56 247.982C1012.89 246.379 1011.77 245.008 1010.33 244.044C1008.88 243.08 1007.19 242.566 1005.45 242.566C1003.72 242.566 1002.02 243.08 1000.58 244.044C999.133 245.008 998.008 246.379 997.343 247.982C996.679 249.585 996.504 251.35 996.842 253.052C997.18 254.754 998.015 256.318 999.242 257.546C1000.9 259.174 1003.14 260.082 1005.46 260.072C1007.79 260.062 1010.01 259.136 1011.66 257.494V257.546Z" fill="#F0F0F0"/>
<path d="M236.376 777.38L246.463 774.656L249.162 764.569L245.232 760.639L241.066 769.258L232.42 773.424L236.376 777.38Z" fill="#E0E0E0"/>
<path d="M235.8 770.62C235.012 769.72 234.595 768.554 234.635 767.358C234.674 766.162 235.167 765.025 236.013 764.179C236.86 763.333 237.996 762.84 239.192 762.8C240.388 762.761 241.554 763.177 242.455 763.966L237.451 756.446L230.56 759.8L229.093 766.874L235.8 770.62Z" fill="#E0E0E0"/>
<path d="M246.018 761.425L238.63 754.036L228.543 756.656L225.923 766.743L233.18 774.21L243.267 771.59L246.018 761.425ZM232.604 767.477C232.118 767.051 231.725 766.531 231.448 765.948C231.172 765.364 231.018 764.73 230.997 764.085C230.976 763.44 231.087 762.797 231.324 762.196C231.561 761.596 231.919 761.05 232.376 760.594C232.832 760.137 233.378 759.779 233.978 759.542C234.579 759.305 235.221 759.194 235.867 759.215C236.512 759.237 237.146 759.39 237.729 759.667C238.313 759.943 238.833 760.336 239.259 760.822C240.047 761.722 240.464 762.889 240.424 764.085C240.384 765.281 239.891 766.417 239.045 767.263C238.199 768.11 237.063 768.602 235.867 768.642C234.671 768.682 233.504 768.265 232.604 767.477V767.477Z" fill="#F0F0F0"/>
<path d="M200.063 224.429L208.447 232.813C209.496 233.844 210.907 234.421 212.377 234.421C213.848 234.421 215.259 233.844 216.307 232.813V232.813C217.332 231.761 217.905 230.351 217.905 228.883C217.905 227.415 217.332 226.005 216.307 224.953L207.95 216.595C206.898 215.571 205.488 214.998 204.02 214.998C202.552 214.998 201.141 215.571 200.09 216.595V216.595C199.064 217.639 198.486 219.043 198.481 220.507C198.477 221.971 199.044 223.379 200.063 224.429Z" fill="#F0F0F0"/>
<path d="M194.168 203.6C196.356 202.992 198.674 203.036 200.837 203.726C203 204.417 204.915 205.724 206.345 207.487C207.776 209.251 208.661 211.393 208.891 213.652C209.121 215.912 208.686 218.189 207.64 220.204C206.594 222.22 204.982 223.886 203.002 224.998C201.022 226.11 198.761 226.62 196.495 226.465C194.23 226.31 192.059 225.497 190.249 224.125C188.44 222.753 187.07 220.883 186.308 218.744C185.825 217.234 185.644 215.643 185.778 214.062C185.912 212.482 186.357 210.944 187.087 209.537C187.818 208.129 188.82 206.88 190.035 205.861C191.25 204.842 192.655 204.074 194.168 203.6V203.6Z" fill="#E0E0E0"/>
<path d="M185.05 217.341L186.264 220.719L211.168 211.773L209.954 208.395L185.05 217.341Z" fill="#F0F0F0"/>
<path d="M655 1120.21C935.556 1120.21 1162.99 1106.93 1162.99 1090.55C1162.99 1074.17 935.556 1060.89 655 1060.89C374.443 1060.89 147.008 1074.17 147.008 1090.55C147.008 1106.93 374.443 1120.21 655 1120.21Z" fill="#F5F5F5"/>
<path d="M227.206 316.103C224.586 304.549 225.739 294.855 230.717 286.942C235.695 279.03 243.817 273.842 255.371 271.222C266.925 268.602 276.908 269.65 284.715 274.523C292.523 279.397 297.815 287.623 300.435 298.889C302.285 305.843 302.438 313.139 300.881 320.164C299.357 325.998 296.139 331.249 291.632 335.255C286.279 339.762 279.854 342.812 272.978 344.111C266.237 345.9 259.179 346.142 252.332 344.818C246.38 343.371 240.997 340.178 236.874 335.648C231.948 330.123 228.608 323.37 227.206 316.103V316.103ZM249.057 311.23C250.681 318.356 253.17 323.177 256.524 325.692C258.255 326.846 260.202 327.639 262.247 328.021C264.292 328.404 266.394 328.369 268.425 327.919C270.456 327.468 272.376 326.612 274.067 325.401C275.759 324.19 277.189 322.649 278.27 320.871C280.156 317.229 280.183 311.439 278.401 303.553C276.881 296.898 274.427 292.339 271.039 289.877C269.333 288.652 267.374 287.826 265.306 287.459C263.239 287.091 261.115 287.192 259.092 287.754C257.066 288.134 255.154 288.967 253.497 290.193C251.841 291.418 250.484 293.003 249.529 294.828C247.59 298.68 247.406 303.92 249.057 311.23Z" fill="#263238"/>
<path d="M310.705 307.457C309.775 303.887 309.609 300.16 310.218 296.521C310.828 292.881 312.199 289.412 314.243 286.34C316.533 283.076 319.446 280.296 322.813 278.16C326.181 276.025 329.937 274.575 333.866 273.895C344.119 271.572 352.538 272.786 359.123 277.537C364.665 281.833 368.432 288.017 369.708 294.912C370.983 301.807 369.678 308.93 366.04 314.924C361.953 321.16 355.298 325.317 346.075 327.395C338.97 329.382 331.39 328.768 324.696 325.666C321.117 323.917 317.991 321.362 315.564 318.203C313.137 315.044 311.474 311.366 310.705 307.457V307.457ZM330.382 302.924C330.912 306.586 332.7 309.948 335.438 312.435C336.524 313.257 337.775 313.832 339.106 314.121C340.436 314.411 341.814 314.407 343.143 314.11C344.471 313.814 345.72 313.231 346.801 312.403C347.882 311.576 348.77 310.523 349.403 309.317C350.775 305.798 350.904 301.916 349.77 298.313C349.218 294.738 347.451 291.462 344.765 289.038C343.723 288.194 342.5 287.6 341.192 287.305C339.883 287.01 338.524 287.02 337.22 287.335C335.86 287.617 334.583 288.205 333.484 289.054C332.386 289.903 331.495 290.99 330.88 292.235C329.469 295.63 329.292 299.413 330.382 302.924Z" fill="#263238"/>
<path d="M389.279 336.853L373.219 266.113L391.559 261.921L393.288 269.493C394.582 266.473 396.461 263.74 398.816 261.45C401.401 259.255 404.488 257.734 407.803 257.022C410.866 256.189 414.089 256.141 417.176 256.882C420.262 257.624 423.112 259.132 425.462 261.266C430.64 266.107 434.153 272.463 435.496 279.423C437.435 287.938 436.859 294.907 433.819 300.383C432.374 303.001 430.376 305.273 427.965 307.042C425.553 308.811 422.786 310.034 419.855 310.627C417.031 311.297 414.103 311.412 411.235 310.968C408.484 310.486 405.862 309.442 403.532 307.902L409.087 332.347L389.279 336.853ZM398.738 287.44C399.219 290.712 400.854 293.704 403.349 295.876C404.349 296.642 405.51 297.172 406.744 297.426C407.978 297.68 409.254 297.652 410.475 297.344C411.61 297.116 412.675 296.625 413.585 295.911C414.495 295.196 415.225 294.278 415.715 293.23C416.829 289.951 416.829 286.396 415.715 283.117C415.236 279.828 413.657 276.799 411.235 274.523C410.337 273.777 409.279 273.247 408.143 272.975C407.007 272.702 405.824 272.694 404.685 272.951C403.481 273.211 402.352 273.74 401.381 274.497C400.41 275.255 399.623 276.222 399.078 277.327C397.796 280.556 397.675 284.131 398.738 287.44Z" fill="#263238"/>
<path d="M443.906 288.986L462.98 282.724C463.994 284.568 465.574 286.038 467.486 286.916C469.544 287.512 471.722 287.56 473.804 287.054C475.886 286.549 477.799 285.508 479.355 284.034C479.789 283.572 480.105 283.011 480.274 282.399C480.443 281.787 480.46 281.143 480.324 280.523C480.166 279.814 479.8 279.168 479.273 278.669C478.745 278.169 478.08 277.839 477.363 277.72C474.403 277.395 471.416 277.395 468.455 277.72C463.486 278.143 458.49 278.143 453.521 277.72C450.613 277.298 447.885 276.052 445.661 274.131C443.289 272.077 441.65 269.307 440.993 266.239C440.336 263.171 440.696 259.972 442.02 257.127C443.547 254.083 445.922 251.544 448.858 249.817C453.037 247.443 457.578 245.77 462.298 244.865C466.805 243.642 471.464 243.077 476.132 243.188C479.063 243.377 481.905 244.276 484.411 245.808C487.082 247.61 489.348 249.948 491.066 252.673L472.726 258.725C472.04 257.36 470.901 256.276 469.503 255.66C467.592 254.976 465.52 254.885 463.556 255.398C461.821 255.64 460.211 256.44 458.971 257.677C458.577 258.099 458.292 258.611 458.142 259.168C457.991 259.725 457.979 260.311 458.106 260.873C458.248 261.493 458.575 262.055 459.042 262.485C459.51 262.916 460.097 263.194 460.726 263.284C463.655 263.624 466.617 263.562 469.53 263.1C474.582 262.368 479.708 262.298 484.778 262.891C487.968 263.341 490.955 264.717 493.372 266.847C495.556 268.828 497.075 271.436 497.721 274.314C498.392 277.4 498.146 280.615 497.013 283.563C495.628 287.053 493.216 290.04 490.097 292.13C485.501 295.134 480.353 297.192 474.953 298.182C465.608 300.313 458.622 300.497 453.993 298.732C449.483 296.932 445.861 293.432 443.906 288.986V288.986Z" fill="#263238"/>
<path d="M507.887 224.193H529.397V240.699L525.441 273.895H512.131L507.887 240.752V224.193ZM508.935 278.899H529.004V296.663H508.935V278.899Z" fill="#263238"/>
<path d="M337.141 449.54H336.67C324.88 444.955 317.832 440.501 314.164 435.13C311.293 435.674 308.322 435.269 305.701 433.977C302.631 432.474 300.084 430.082 298.392 427.112C297.502 427.795 296.454 428.242 295.346 428.411C294.237 428.581 293.104 428.467 292.051 428.082C288.822 426.874 286.067 424.66 284.191 421.768C283.018 422.642 281.559 423.044 280.104 422.894C272.244 422.265 261.764 406.755 261.004 390.249C260.997 389.901 261.123 389.562 261.356 389.304C261.59 389.046 261.914 388.887 262.262 388.86C262.434 388.853 262.606 388.88 262.767 388.94C262.929 388.999 263.077 389.09 263.204 389.207C263.33 389.323 263.433 389.464 263.505 389.62C263.577 389.777 263.617 389.946 263.624 390.118C264.358 405.838 274.392 419.803 280.34 420.274C280.773 420.323 281.211 420.285 281.629 420.164C282.047 420.042 282.437 419.84 282.776 419.567C280.727 415.831 279.441 411.726 278.991 407.489C278.541 403.253 278.937 398.969 280.156 394.886C282.41 387.026 284.401 383.935 286.811 384.406C291.318 385.533 290.715 402.746 288.331 413.986C287.97 416.013 287.222 417.952 286.13 419.698C287.675 422.288 290.006 424.316 292.785 425.488C293.525 425.77 294.331 425.833 295.107 425.671C295.883 425.508 296.595 425.127 297.16 424.571C295.117 419.514 294.54 412.598 297.475 403.794C301.143 392.188 302.715 391.873 303.527 391.664C303.832 391.6 304.15 391.619 304.445 391.721C304.74 391.822 305.002 392.002 305.204 392.24C307.64 394.991 304.732 413.017 301.693 421.925C301.337 422.997 300.844 424.018 300.226 424.964C301.631 427.798 303.921 430.097 306.749 431.514C308.604 432.416 310.667 432.805 312.723 432.641C312.487 432.143 312.278 431.645 312.068 431.121C309.998 425.488 311.02 419.017 315.186 411.261C317.937 406.152 320.19 403.742 322.286 403.742C322.842 403.749 323.385 403.916 323.849 404.223C324.314 404.529 324.681 404.962 324.906 405.471C327.185 409.689 325.535 423.602 321.028 430.518C319.973 432.104 318.506 433.372 316.784 434.186C320.295 438.798 326.976 442.859 337.744 446.998C337.906 447.056 338.054 447.146 338.18 447.263C338.306 447.379 338.407 447.52 338.478 447.676C338.549 447.832 338.588 448.001 338.592 448.173C338.597 448.344 338.567 448.515 338.504 448.675C338.402 448.948 338.214 449.18 337.968 449.336C337.722 449.492 337.432 449.564 337.141 449.54ZM322.26 406.388C322.26 406.388 320.766 406.388 317.465 412.545C313.666 419.567 312.697 425.357 314.505 430.23C314.724 430.834 314.986 431.42 315.291 431.986C316.71 431.399 317.916 430.394 318.749 429.104C322.417 423.497 324.172 411.969 322.81 407.462C322.627 406.545 322.26 406.388 322.26 406.388ZM303.448 395.358C302.03 398.341 300.856 401.434 299.937 404.607C297.928 410.105 297.582 416.073 298.942 421.768L299.178 421.086C301.929 412.782 303.396 404.105 303.527 395.358H303.448ZM286.209 387.105C285.763 387.498 284.479 389.149 282.672 395.541C280.533 402.716 281.208 410.435 284.558 417.13C285.096 415.959 285.491 414.727 285.737 413.462C288.54 400.598 287.754 388.965 286.287 387.105H286.209Z" fill="#263238"/>
<path d="M436.754 586.88C432.565 586.92 428.441 585.844 424.807 583.762C424.507 583.582 424.291 583.292 424.202 582.954C424.114 582.617 424.162 582.258 424.335 581.954C424.421 581.807 424.536 581.678 424.673 581.575C424.81 581.472 424.966 581.398 425.132 581.357C425.298 581.315 425.471 581.307 425.64 581.333C425.809 581.36 425.971 581.419 426.117 581.509C435.47 586.985 447.548 583.16 450.037 579.151C450.217 578.9 450.345 578.615 450.412 578.313C450.48 578.012 450.486 577.7 450.43 577.396C445.647 577.67 440.911 576.322 436.99 573.57C430.309 569.405 429.785 568.147 429.837 567.151C429.85 566.865 429.939 566.588 430.096 566.348C430.253 566.109 430.471 565.915 430.728 565.789C433.348 564.479 445.164 569.902 450.09 573.151C450.68 573.543 451.225 574 451.714 574.514C453.65 574.075 455.394 573.028 456.692 571.527C457.423 570.668 457.951 569.656 458.238 568.566H457.714C453.522 568.985 449.33 567.178 444.85 563.038C441.758 560.208 440.579 558.243 440.972 556.698C441.091 556.263 441.332 555.872 441.666 555.57C442.001 555.268 442.414 555.069 442.859 554.995C446.474 554.078 455.435 557.903 459.076 561.911C459.888 562.783 460.466 563.847 460.753 565.003C464.185 563.405 467.801 559.763 472.071 553.816C472.171 553.674 472.297 553.553 472.443 553.461C472.589 553.368 472.752 553.305 472.923 553.276C473.094 553.247 473.268 553.252 473.437 553.29C473.605 553.329 473.765 553.401 473.906 553.501C474.186 553.706 474.376 554.012 474.434 554.354C474.493 554.697 474.416 555.049 474.22 555.335C469.268 562.252 465.129 566.182 460.989 567.78C460.774 569.717 459.98 571.543 458.71 573.02C457.2 574.774 455.217 576.057 452.998 576.714C453.123 577.34 453.122 577.984 452.996 578.609C452.87 579.234 452.621 579.828 452.264 580.356C450.064 584.103 443.723 586.88 436.754 586.88ZM434.422 568.697C435.313 569.352 436.571 570.217 438.378 571.317C441.195 573.218 444.432 574.404 447.81 574.776C443.593 572.247 439.102 570.207 434.422 568.697V568.697ZM443.566 557.562C444.319 558.979 445.363 560.22 446.631 561.204C450.509 564.793 454.046 566.444 457.452 566.025H458.29C458.104 565.211 457.706 564.461 457.138 563.85C453.47 559.711 445.4 557.143 443.566 557.562Z" fill="#263238"/>
<path d="M471.443 583.291L430.623 590.706L393.55 388.389L314.793 402.694L186.413 630.634L200.194 705.855L364.861 675.96L376.127 737.478L454.884 723.12L443.619 661.603L484.438 654.188L471.443 583.291ZM264.856 620.94L332.976 501.547L351.971 605.142L264.856 620.94Z" fill="#407BFF"/>
<path d="M800.226 374.66C798.987 361.942 796.17 349.427 791.842 337.404C787.39 325.887 781.205 315.117 773.502 305.466C764.384 294.238 753.059 285 740.228 278.323C726.255 270.655 707.723 265.319 684.632 262.315C636.686 256.061 599.325 264.568 572.548 287.833C545.772 311.099 528.131 355.639 519.624 421.453C516.228 446.05 515.35 470.929 517.004 495.704C518.751 518.411 522.926 536.69 529.528 550.541C537.93 569.22 551.184 585.305 567.911 597.124C584.452 608.74 607.159 616.416 636.031 620.154C687.348 626.844 725.399 616.984 750.184 590.574C774.969 564.165 791.388 519.537 799.44 456.692C803.02 429.481 803.284 401.935 800.226 374.66V374.66Z" fill="#407BFF"/>
<path d="M659.638 593.247C653.324 593.037 646.538 592.461 639.7 591.57C615.701 588.452 597.151 582.374 584.523 573.518C571.929 564.626 561.971 552.496 555.703 538.41L555.572 538.122C550.541 527.642 547.24 512.577 545.799 493.582C544.273 470.765 545.08 447.853 548.209 425.2C557.563 352.574 576.872 322.26 591.413 309.632C608.391 294.907 631.316 288.253 661.446 289.301C667.629 289.51 674.179 290.06 680.912 290.925C700.248 293.545 715.575 297.737 726.422 303.658C735.794 308.485 744.092 315.161 750.814 323.282C756.695 330.617 761.422 338.807 764.831 347.569C768.312 357.34 770.565 367.505 771.538 377.83C774.332 402.851 774.077 428.118 770.778 453.077C763.521 509.512 749.478 549.178 729.068 570.977C713.924 587.116 691.209 594.557 659.612 593.352L659.638 593.247Z" fill="#263238"/>
<path d="M710.911 375.42L711.251 365.49L705.147 363.499C704.887 360.141 704.343 356.81 703.522 353.543L708.762 349.718L705.252 340.391L698.859 340.915C697.356 337.917 695.603 335.051 693.619 332.347L696.92 326.819L690.108 319.562L684.396 322.496C681.841 320.299 679.107 318.318 676.222 316.575L677.139 310.234L668.074 306.121L663.934 310.994C660.729 309.955 657.442 309.184 654.109 308.689L652.563 302.479L642.607 302.139L640.642 308.217C637.285 308.486 633.955 309.029 630.686 309.841L626.835 304.601L617.508 308.086L618.032 314.479C615.035 315.983 612.169 317.736 609.464 319.719L603.962 316.391L596.679 323.177L599.613 328.915C597.41 331.469 595.437 334.213 593.718 337.116L587.378 336.146L583.238 345.211L588.138 349.351C587.074 352.559 586.303 355.856 585.832 359.202L579.596 360.774L579.256 370.678L585.36 372.669C585.616 376.037 586.16 379.376 586.985 382.651L581.745 386.45L585.256 395.777L591.648 395.253C593.137 398.26 594.89 401.127 596.888 403.821L593.561 409.349L600.373 416.606L606.085 413.698C608.641 415.887 611.375 417.859 614.259 419.593L613.316 425.934L622.381 430.047L626.547 425.2C629.761 426.233 633.057 426.996 636.398 427.479L637.944 433.715L647.874 434.056L649.839 427.951C653.206 427.695 656.546 427.152 659.821 426.327L663.62 431.567L672.947 428.082L672.449 421.715C675.436 420.192 678.3 418.44 681.017 416.475L686.519 419.777L693.802 412.991L690.894 407.253C693.089 404.708 695.053 401.972 696.763 399.079L703.103 400.022L707.243 390.957L702.37 386.817C703.412 383.614 704.175 380.327 704.649 376.992L710.911 375.42ZM643.839 407.567C636.079 407.284 628.577 404.708 622.279 400.164C615.982 395.621 611.172 389.314 608.456 382.039C605.74 374.764 605.24 366.848 607.019 359.289C608.798 351.73 612.777 344.868 618.453 339.569C624.128 334.269 631.247 330.77 638.91 329.512C646.573 328.255 654.436 329.296 661.508 332.503C668.58 335.711 674.543 340.942 678.644 347.535C682.746 354.129 684.802 361.79 684.554 369.551C684.388 374.725 683.202 379.814 681.064 384.528C678.926 389.241 675.878 393.486 672.095 397.019C668.312 400.551 663.868 403.301 659.019 405.112C654.17 406.922 649.011 407.756 643.839 407.567V407.567Z" fill="#407BFF"/>
<path opacity="0.3" d="M752.254 557.719L752.988 551.012L748.953 549.388C748.947 547.105 748.754 544.827 748.377 542.576L752.018 540.244L750.158 533.773H745.809C744.949 531.668 743.906 529.643 742.691 527.72L745.154 524.157L740.962 518.917L736.953 520.594C735.329 518.987 733.577 517.515 731.713 516.192L732.683 511.948L726.788 508.699L723.696 511.817C721.591 510.95 719.417 510.258 717.199 509.747L716.465 505.477L709.784 504.717L708.133 508.752C705.857 508.762 703.587 508.973 701.348 509.38L699.016 505.66L692.544 507.573V511.922C690.439 512.791 688.414 513.843 686.492 515.066L682.929 512.446L677.689 516.638L679.366 520.646C677.768 522.272 676.305 524.025 674.99 525.886L670.746 524.943L667.523 530.838L670.615 533.904C669.737 536.014 669.044 538.197 668.545 540.427L664.248 541.135L663.541 547.816L667.55 549.493C667.552 551.759 667.753 554.021 668.152 556.252L664.458 558.584L666.344 565.055H670.72C671.594 567.15 672.646 569.166 673.864 571.081L671.244 574.645L675.436 579.885L679.497 578.182C681.109 579.794 682.863 581.258 684.737 582.557L683.82 586.88L689.715 590.103L692.78 587.037C694.888 587.883 697.061 588.558 699.278 589.055L700.038 593.351L706.719 594.085L708.343 590.076C710.66 590.073 712.974 589.88 715.26 589.5L717.592 593.194L724.037 591.308V586.959C726.143 586.073 728.176 585.022 730.115 583.815L733.626 586.435L738.866 582.216L737.163 578.208C738.777 576.583 740.258 574.831 741.591 572.968L745.809 573.911L749.058 568.016L745.966 564.977C746.809 562.867 747.483 560.695 747.984 558.479L752.254 557.719ZM718.535 555.099C717.426 557.128 715.741 558.782 713.692 559.852C711.643 560.923 709.322 561.361 707.024 561.113C704.726 560.864 702.553 559.939 700.78 558.455C699.008 556.972 697.715 554.995 697.066 552.777C696.417 550.558 696.44 548.196 697.134 545.991C697.827 543.786 699.159 541.836 700.961 540.387C702.763 538.939 704.953 538.058 707.256 537.855C709.559 537.652 711.87 538.137 713.897 539.248C716.608 540.742 718.617 543.247 719.486 546.217C720.355 549.187 720.013 552.381 718.535 555.099V555.099Z" fill="#407BFF"/>
<path d="M789.38 444.483L781.52 439.086C780.746 436.28 779.693 433.559 778.376 430.964L780.367 423.104L769.049 410.973L761.189 412.44C758.695 410.956 756.063 409.719 753.329 408.746V408.746L748.482 400.572L731.897 400.021L726.5 407.881C723.69 408.643 720.968 409.697 718.378 411.026L710.518 409.008L698.387 420.353L699.854 428.213C698.349 430.695 697.11 433.33 696.16 436.073L688.012 440.92L687.436 457.504L695.296 462.901C696.057 465.728 697.111 468.468 698.439 471.076V471.076L696.448 478.936L707.767 491.066L715.627 489.626C718.121 491.108 720.754 492.345 723.487 493.32V493.32L728.308 501.468L744.918 502.044L750.289 494.184C753.122 493.416 755.869 492.362 758.49 491.04V491.04L766.35 493.031L778.481 481.713L777.039 473.853C778.529 471.362 779.766 468.729 780.734 465.993V465.993L788.882 461.146L789.38 444.483ZM737.687 469.687C734 469.561 730.433 468.343 727.437 466.19C724.441 464.036 722.152 461.042 720.857 457.586C719.563 454.131 719.323 450.37 720.167 446.778C721.011 443.186 722.901 439.925 725.598 437.407C728.295 434.889 731.679 433.228 735.32 432.633C738.961 432.039 742.697 432.537 746.056 434.066C749.414 435.594 752.243 438.085 754.186 441.221C756.129 444.358 757.098 448 756.97 451.688C756.793 456.629 754.663 461.299 751.049 464.673C747.434 468.047 742.629 469.85 737.687 469.687V469.687Z" fill="white"/>
<path d="M846.26 312.095L847.622 308.82C848.548 308.298 849.425 307.693 850.242 307.012H853.281L856.845 301.772L855.692 298.968C856.133 298.035 856.484 297.061 856.74 296.06V296.06L859.36 293.65L858.259 287.493L854.958 286.13C854.441 285.201 853.835 284.324 853.15 283.51V280.471L848.041 276.908L845.212 278.087C844.177 277.723 843.105 277.477 842.015 277.353L839.605 274.733L833.474 275.834L832.086 279.135C831.113 279.639 830.192 280.236 829.335 280.917V280.917H826.322L822.758 286.157L823.911 288.96C823.559 289.998 823.313 291.069 823.178 292.156L820.558 294.593L821.658 300.724L824.959 302.086C825.459 303.02 826.056 303.898 826.741 304.706V304.706V307.719L831.981 311.282L834.784 310.13C835.833 310.47 836.912 310.707 838.007 310.837V310.837L840.417 313.457L846.26 312.095ZM833.16 295.117C832.912 293.75 833.075 292.34 833.629 291.066C834.183 289.792 835.102 288.711 836.271 287.959C837.439 287.208 838.804 286.82 840.194 286.844C841.583 286.869 842.933 287.305 844.074 288.098C845.215 288.89 846.096 290.003 846.604 291.296C847.112 292.59 847.225 294.004 846.929 295.362C846.633 296.719 845.941 297.958 844.94 298.922C843.94 299.886 842.675 300.531 841.308 300.776C839.478 301.097 837.595 300.683 836.07 299.623C834.544 298.563 833.498 296.944 833.16 295.117V295.117Z" fill="#407BFF"/>
<path d="M774.498 294.724L772.48 293.021C776.804 287.659 782.147 283.206 788.2 279.921L789.432 282.227C783.675 285.361 778.598 289.609 774.498 294.724V294.724Z" fill="#407BFF"/>
<path d="M795.406 279.816L794.384 277.406C804.059 273.201 814.638 271.507 825.143 272.48L824.881 275.1C814.815 274.151 804.673 275.774 795.406 279.816V279.816Z" fill="#407BFF"/>
<path d="M790.454 297.946L788.306 296.479C794.618 287.955 803.804 282.008 814.165 279.737L814.663 282.357C804.981 284.472 796.385 290.007 790.454 297.946V297.946Z" fill="#407BFF"/>
<path d="M616.591 550.2C616.234 550.189 615.895 550.039 615.648 549.781L610.172 544.122C607.38 543.869 604.618 543.36 601.919 542.602L593.352 546.375C593.163 546.478 592.951 546.532 592.736 546.532C592.521 546.532 592.309 546.478 592.12 546.375L577.763 536.864C577.577 536.742 577.427 536.574 577.326 536.377C577.225 536.179 577.177 535.959 577.186 535.738V526.41C575.434 524.219 573.89 521.868 572.575 519.389L565.213 516.559C565.007 516.479 564.824 516.349 564.682 516.179C564.54 516.01 564.443 515.807 564.401 515.59L560.995 498.717C560.949 498.502 560.959 498.278 561.024 498.068C561.088 497.857 561.204 497.666 561.361 497.512L567.021 492.036C567.291 489.247 567.8 486.486 568.54 483.783L564.767 475.216C564.664 475.027 564.61 474.815 564.61 474.6C564.61 474.385 564.664 474.173 564.767 473.984L574.278 459.627C574.396 459.438 574.563 459.284 574.762 459.183C574.96 459.081 575.182 459.035 575.405 459.05L584.732 459.181C586.917 457.42 589.269 455.876 591.753 454.57L594.609 447.208C594.685 447.004 594.811 446.822 594.976 446.68C595.141 446.538 595.339 446.44 595.552 446.396L612.425 442.99C612.641 442.942 612.865 442.951 613.076 443.015C613.287 443.079 613.478 443.197 613.63 443.356L619.106 449.016C621.906 449.271 624.677 449.78 627.385 450.535L635.927 446.763C636.12 446.659 636.336 446.605 636.555 446.605C636.775 446.605 636.991 446.659 637.184 446.763L651.516 456.273C651.697 456.4 651.847 456.569 651.951 456.764C652.056 456.96 652.113 457.178 652.118 457.4L651.961 466.727C653.722 468.918 655.274 471.269 656.598 473.749L663.934 476.604C664.139 476.68 664.32 476.806 664.462 476.971C664.604 477.136 664.702 477.334 664.747 477.548L668.179 494.42C668.219 494.636 668.207 494.858 668.143 495.068C668.079 495.278 667.966 495.469 667.812 495.625L662.127 501.127C661.865 503.909 661.356 506.662 660.607 509.354L664.38 517.922C664.483 518.115 664.537 518.331 664.537 518.55C664.537 518.77 664.483 518.986 664.38 519.179L655 533.406C654.877 533.584 654.713 533.729 654.521 533.83C654.329 533.93 654.116 533.982 653.9 533.982L644.546 533.851C642.353 535.589 640.012 537.132 637.551 538.462L634.695 545.825C634.617 546.032 634.487 546.216 634.317 546.358C634.148 546.501 633.944 546.597 633.726 546.637L616.853 550.2H616.591ZM601.84 539.72C601.961 539.696 602.086 539.696 602.207 539.72C605.037 540.544 607.942 541.08 610.879 541.318C611.194 541.355 611.488 541.493 611.718 541.711L616.958 547.213L632.416 544.095L635.193 536.917C635.322 536.627 635.543 536.387 635.822 536.235C638.439 534.882 640.906 533.258 643.184 531.389C643.425 531.185 643.734 531.082 644.049 531.1L653.14 531.231L661.838 518.131L658.17 509.8C658.066 509.512 658.066 509.197 658.17 508.909C658.981 506.076 659.516 503.172 659.769 500.237C659.795 499.919 659.935 499.622 660.162 499.398L665.664 494.158L662.546 478.7L655.393 475.923C655.086 475.811 654.833 475.586 654.686 475.294C653.326 472.681 651.702 470.214 649.839 467.932C649.652 467.693 649.55 467.397 649.551 467.094V457.976L636.451 449.278L628.145 452.946C627.849 453.052 627.525 453.052 627.228 452.946C624.389 452.126 621.475 451.59 618.53 451.348C618.215 451.31 617.921 451.173 617.691 450.954L612.451 445.453L596.993 448.596L594.242 455.88C594.133 456.18 593.919 456.431 593.64 456.588C591.012 457.937 588.536 459.562 586.251 461.434C586.138 461.537 586.006 461.615 585.862 461.665C585.718 461.714 585.565 461.734 585.413 461.723L576.322 461.592L567.597 474.692L571.265 483.023C571.349 483.199 571.392 483.392 571.392 483.587C571.392 483.781 571.349 483.974 571.265 484.15C570.489 486.916 569.98 489.75 569.745 492.613C569.721 492.93 569.581 493.229 569.352 493.451L563.85 498.691L566.994 514.149L574.121 516.926C574.439 517.058 574.699 517.3 574.854 517.607C576.205 520.203 577.821 522.653 579.675 524.917C579.87 525.152 579.972 525.45 579.963 525.755V534.873L593.063 543.571L601.395 539.904C601.531 539.816 601.682 539.754 601.84 539.72V539.72ZM614.705 531.231C608.398 531.226 602.211 529.511 596.801 526.27C591.392 523.03 586.961 518.383 583.981 512.826C581 507.268 579.582 501.007 579.875 494.707C580.169 488.408 582.164 482.306 585.649 477.05V477.05C588.982 472.007 593.566 467.916 598.954 465.176C604.342 462.436 610.349 461.142 616.387 461.419C622.425 461.696 628.288 463.536 633.402 466.758C638.516 469.98 642.706 474.475 645.563 479.801C648.419 485.128 649.845 491.105 649.699 497.148C649.553 503.191 647.842 509.092 644.732 514.275C641.622 519.459 637.22 523.746 631.957 526.718C626.694 529.69 620.749 531.245 614.705 531.231ZM587.85 478.491C584.323 483.812 582.453 490.059 582.477 496.442C582.5 502.825 584.416 509.059 587.982 514.353C591.547 519.648 596.603 523.767 602.509 526.188C608.416 528.61 614.907 529.226 621.164 527.959C627.42 526.691 633.16 523.597 637.658 519.068C642.156 514.539 645.21 508.777 646.434 502.512C647.658 496.247 646.997 489.76 644.535 483.871C642.072 477.981 637.918 472.954 632.599 469.425C629.071 467.064 625.111 465.425 620.947 464.603C616.782 463.78 612.496 463.791 608.335 464.634C604.175 465.476 600.223 467.135 596.707 469.513C593.19 471.892 590.18 474.943 587.85 478.491V478.491Z" fill="white"/>
<path d="M1115.67 606.923L1074.54 601.369L1101.74 397.506L1022.4 386.817L829.964 563.981L819.851 639.778L985.67 662.153L977.391 724.168L1056.72 734.858L1065 672.869L1106.14 678.423L1115.67 606.923ZM907.594 578.837L1009.15 486.272L995.207 590.653L907.594 578.837Z" fill="#407BFF"/>
<path d="M1032.62 732.919H1032.28C1031.94 732.855 1031.64 732.66 1031.44 732.375C1031.25 732.091 1031.17 731.74 1031.23 731.399L1092.54 396.197C1092.61 395.86 1092.81 395.563 1093.09 395.368C1093.37 395.173 1093.72 395.094 1094.06 395.149C1094.4 395.212 1094.7 395.408 1094.9 395.692C1095.09 395.977 1095.17 396.328 1095.11 396.668L1033.93 731.845C1033.87 732.148 1033.71 732.42 1033.47 732.616C1033.23 732.812 1032.93 732.919 1032.62 732.919V732.919Z" fill="#263238"/>
<path d="M1086.85 401.829C1086.83 402.399 1086.59 402.937 1086.17 403.326C1085.75 403.714 1085.2 403.92 1084.63 403.899C1084.06 403.878 1083.52 403.632 1083.13 403.214C1082.74 402.797 1082.54 402.242 1082.56 401.672C1082.58 401.103 1082.83 400.564 1083.24 400.176C1083.66 399.788 1084.22 399.582 1084.79 399.603C1085.35 399.623 1085.89 399.87 1086.28 400.287C1086.67 400.705 1086.88 401.26 1086.85 401.829Z" fill="#263238"/>
<path d="M1078.13 447.156C1078.11 447.58 1077.97 447.99 1077.72 448.335C1077.48 448.679 1077.13 448.941 1076.73 449.089C1076.33 449.237 1075.9 449.264 1075.49 449.166C1075.07 449.068 1074.7 448.849 1074.41 448.538C1074.12 448.227 1073.93 447.837 1073.86 447.418C1073.79 446.998 1073.85 446.568 1074.03 446.182C1074.21 445.796 1074.49 445.471 1074.85 445.247C1075.22 445.024 1075.64 444.913 1076.06 444.929C1076.34 444.939 1076.62 445.004 1076.88 445.122C1077.13 445.239 1077.36 445.406 1077.56 445.613C1077.75 445.82 1077.9 446.063 1078 446.327C1078.1 446.592 1078.14 446.873 1078.13 447.156Z" fill="#263238"/>
<path d="M1069.41 492.56C1069.4 492.842 1069.33 493.12 1069.21 493.376C1069.1 493.633 1068.93 493.864 1068.72 494.057C1068.51 494.249 1068.27 494.398 1068.01 494.497C1067.74 494.595 1067.46 494.64 1067.18 494.63C1066.9 494.623 1066.62 494.561 1066.36 494.446C1066.11 494.331 1065.88 494.167 1065.68 493.962C1065.49 493.757 1065.34 493.516 1065.24 493.253C1065.14 492.99 1065.1 492.71 1065.11 492.429C1065.12 492.145 1065.18 491.864 1065.29 491.605C1065.41 491.345 1065.58 491.11 1065.78 490.915C1065.99 490.72 1066.24 490.569 1066.5 490.469C1066.77 490.369 1067.05 490.323 1067.34 490.333C1067.9 490.36 1068.44 490.608 1068.82 491.025C1069.21 491.441 1069.42 491.992 1069.41 492.56Z" fill="#263238"/>
<path d="M1052.22 539.72C1052.16 540.246 1051.91 540.731 1051.52 541.084C1051.12 541.437 1050.61 541.632 1050.08 541.632C1049.55 541.632 1049.04 541.437 1048.65 541.084C1048.26 540.731 1048.01 540.246 1047.95 539.72C1047.91 539.42 1047.94 539.116 1048.04 538.828C1048.13 538.541 1048.28 538.276 1048.48 538.05C1048.68 537.825 1048.93 537.645 1049.21 537.522C1049.48 537.399 1049.78 537.335 1050.08 537.335C1050.39 537.335 1050.68 537.399 1050.96 537.522C1051.24 537.645 1051.48 537.825 1051.68 538.05C1051.89 538.276 1052.04 538.541 1052.13 538.828C1052.22 539.116 1052.25 539.42 1052.22 539.72V539.72Z" fill="#263238"/>
<path d="M1051.93 583.134C1051.92 583.417 1051.86 583.696 1051.74 583.955C1051.63 584.213 1051.46 584.446 1051.25 584.638C1051.05 584.831 1050.8 584.981 1050.54 585.078C1050.27 585.175 1049.99 585.218 1049.7 585.204C1049.28 585.188 1048.87 585.046 1048.52 584.797C1048.18 584.549 1047.92 584.203 1047.77 583.805C1047.62 583.407 1047.59 582.974 1047.69 582.56C1047.79 582.147 1048.01 581.772 1048.32 581.483C1048.63 581.194 1049.02 581.003 1049.44 580.936C1049.86 580.868 1050.29 580.926 1050.68 581.103C1051.06 581.279 1051.39 581.567 1051.61 581.928C1051.83 582.29 1051.95 582.709 1051.93 583.134Z" fill="#263238"/>
<path d="M1043.21 628.46C1043.19 628.885 1043.06 629.298 1042.81 629.646C1042.57 629.994 1042.22 630.261 1041.82 630.413C1041.43 630.565 1040.99 630.595 1040.58 630.5C1040.16 630.404 1039.78 630.188 1039.49 629.878C1039.2 629.567 1039.01 629.177 1038.94 628.757C1038.87 628.337 1038.93 627.905 1039.1 627.518C1039.28 627.13 1039.56 626.803 1039.93 626.579C1040.29 626.355 1040.71 626.243 1041.14 626.259C1041.7 626.279 1042.24 626.522 1042.62 626.934C1043.01 627.346 1043.22 627.894 1043.21 628.46V628.46Z" fill="#263238"/>
<path d="M1034.48 673.786C1034.46 674.358 1034.21 674.899 1033.8 675.291C1033.38 675.684 1032.83 675.896 1032.25 675.882C1031.97 675.872 1031.69 675.806 1031.44 675.688C1031.18 675.571 1030.95 675.404 1030.76 675.197C1030.57 674.99 1030.42 674.748 1030.32 674.483C1030.22 674.218 1030.17 673.937 1030.18 673.655C1030.19 673.373 1030.26 673.095 1030.37 672.838C1030.49 672.58 1030.65 672.348 1030.86 672.155C1031.07 671.961 1031.31 671.81 1031.57 671.71C1031.83 671.61 1032.12 671.563 1032.4 671.572C1032.68 671.58 1032.96 671.644 1033.22 671.76C1033.47 671.876 1033.7 672.042 1033.9 672.247C1034.09 672.453 1034.24 672.695 1034.34 672.959C1034.44 673.223 1034.49 673.504 1034.48 673.786V673.786Z" fill="#263238"/>
<path d="M1025.73 719.138C1025.71 719.562 1025.57 719.972 1025.32 720.317C1025.07 720.661 1024.73 720.923 1024.33 721.071C1023.93 721.219 1023.5 721.246 1023.09 721.148C1022.67 721.05 1022.3 720.831 1022.01 720.52C1021.72 720.209 1021.53 719.819 1021.46 719.4C1021.39 718.98 1021.45 718.55 1021.63 718.164C1021.81 717.778 1022.09 717.452 1022.45 717.229C1022.82 717.006 1023.24 716.895 1023.66 716.911C1023.94 716.917 1024.22 716.981 1024.48 717.097C1024.74 717.213 1024.97 717.38 1025.16 717.587C1025.36 717.795 1025.51 718.039 1025.6 718.305C1025.7 718.572 1025.74 718.855 1025.73 719.138V719.138Z" fill="#263238"/>
<path d="M1050.07 540.899C1049.77 540.899 1049.49 540.798 1049.26 540.612C1049.03 540.426 1048.87 540.166 1048.81 539.877C1048.77 539.709 1048.77 539.534 1048.8 539.364C1048.83 539.193 1048.89 539.03 1048.98 538.884C1049.08 538.738 1049.2 538.611 1049.34 538.512C1049.48 538.413 1049.64 538.342 1049.81 538.305L1056.31 536.917C1056.48 536.878 1056.65 536.875 1056.82 536.905C1057 536.936 1057.16 537.001 1057.31 537.096C1057.45 537.192 1057.58 537.315 1057.68 537.46C1057.78 537.604 1057.84 537.767 1057.88 537.938C1057.91 538.107 1057.91 538.281 1057.88 538.45C1057.85 538.619 1057.78 538.78 1057.69 538.923C1057.59 539.067 1057.47 539.19 1057.33 539.286C1057.18 539.383 1057.02 539.45 1056.86 539.484L1050.36 540.873L1050.07 540.899Z" fill="#263238"/>
<path d="M1071.79 516.769C1068.7 524.785 1066.08 532.973 1063.93 541.292C1061.97 550.541 1061.86 571.239 1061.86 571.239" fill="#263238"/>
<path d="M1061.86 572.549C1061.51 572.535 1061.18 572.389 1060.94 572.141C1060.7 571.892 1060.56 571.56 1060.55 571.212C1060.55 570.374 1060.71 550.252 1062.67 541.03C1064.8 532.639 1067.43 524.38 1070.53 516.297C1070.58 516.125 1070.67 515.965 1070.79 515.828C1070.91 515.691 1071.05 515.579 1071.21 515.5C1071.37 515.421 1071.55 515.377 1071.73 515.369C1071.91 515.362 1072.09 515.391 1072.26 515.457C1072.43 515.522 1072.58 515.621 1072.71 515.747C1072.84 515.874 1072.94 516.026 1073 516.194C1073.07 516.361 1073.1 516.54 1073.09 516.72C1073.09 516.901 1073.05 517.078 1072.97 517.24C1069.88 525.195 1067.26 533.322 1065.11 541.58C1063.2 550.593 1063.06 571.029 1063.04 571.239C1063.04 571.564 1062.92 571.879 1062.7 572.121C1062.48 572.364 1062.18 572.516 1061.86 572.549Z" fill="#263238"/>
<path d="M582.819 798.681C586.461 739.993 579.78 633.28 690.108 647.428C808.349 662.546 774.525 800.829 774.525 800.829L582.819 798.681Z" fill="#263238"/>
<path d="M658.956 763.416C685.552 763.416 707.112 741.856 707.112 715.26C707.112 688.665 685.552 667.104 658.956 667.104C632.361 667.104 610.801 688.665 610.801 715.26C610.801 741.856 632.361 763.416 658.956 763.416Z" fill="white"/>
<path d="M665.297 667.183C642.477 663.305 618.137 680.099 615.7 697.129L706.116 705.461C702.92 686.047 683.375 670.274 665.297 667.183Z" fill="#263238"/>
<path d="M695.82 714.055C695.165 726.657 688.301 736.534 680.493 736.115C672.686 735.696 666.869 725.19 667.393 712.535C667.917 699.881 674.913 690.056 682.72 690.475C690.528 690.894 696.449 701.479 695.82 714.055Z" fill="#263238"/>
<path d="M658.956 766.036C648.914 766.036 639.097 763.058 630.747 757.478C622.397 751.899 615.889 743.969 612.046 734.691C608.203 725.413 607.197 715.204 609.156 705.354C611.116 695.505 615.951 686.457 623.053 679.356C630.154 672.255 639.201 667.419 649.05 665.46C658.9 663.501 669.109 664.506 678.387 668.349C687.665 672.193 695.595 678.701 701.175 687.051C706.754 695.401 709.732 705.218 709.732 715.26C709.718 728.722 704.364 741.629 694.845 751.148C685.325 760.668 672.419 766.022 658.956 766.036V766.036ZM658.956 669.751C649.949 669.751 641.144 672.422 633.655 677.427C626.166 682.431 620.33 689.544 616.884 697.867C613.439 706.189 612.538 715.346 614.298 724.179C616.057 733.013 620.396 741.127 626.767 747.494C633.138 753.861 641.254 758.196 650.089 759.95C658.924 761.704 668.08 760.799 676.4 757.348C684.72 753.898 691.83 748.057 696.83 740.565C701.831 733.074 704.497 724.267 704.492 715.26C704.478 703.19 699.675 691.618 691.138 683.086C682.601 674.554 671.026 669.758 658.956 669.751V669.751Z" fill="#407BFF"/>
<path opacity="0.3" d="M761.084 797.213H760.77C760.601 797.177 760.442 797.106 760.302 797.007C760.161 796.907 760.042 796.78 759.951 796.633C759.861 796.487 759.801 796.323 759.775 796.153C759.749 795.982 759.758 795.808 759.8 795.641C759.8 795.301 768.237 759.774 759.565 723.853C759.481 723.506 759.539 723.14 759.726 722.835C759.913 722.53 760.213 722.312 760.56 722.229C760.908 722.146 761.274 722.204 761.579 722.39C761.883 722.577 762.101 722.877 762.185 723.225C771.014 759.905 762.499 795.904 762.42 796.244C762.343 796.534 762.167 796.789 761.924 796.966C761.681 797.142 761.384 797.23 761.084 797.213V797.213Z" fill="white"/>
<path opacity="0.3" d="M753.774 704.151C753.523 704.148 753.277 704.076 753.064 703.942C752.852 703.807 752.68 703.617 752.569 703.392C749.313 696.194 745.139 689.448 740.15 683.322C739.933 683.054 739.831 682.711 739.865 682.368C739.899 682.024 740.068 681.708 740.334 681.488C740.467 681.377 740.622 681.293 740.788 681.242C740.954 681.19 741.129 681.173 741.302 681.19C741.475 681.207 741.643 681.258 741.797 681.341C741.95 681.424 742.085 681.536 742.194 681.672C747.305 687.975 751.593 694.904 754.953 702.291C755.028 702.446 755.071 702.613 755.08 702.785C755.088 702.956 755.062 703.127 755.004 703.288C754.945 703.45 754.855 703.598 754.738 703.723C754.622 703.849 754.481 703.95 754.324 704.02C754.152 704.101 753.965 704.145 753.774 704.151V704.151Z" fill="white"/>
<path d="M337.273 1073.99H336.304C332.829 1073.89 329.536 1072.42 327.148 1069.89C324.76 1067.37 323.473 1064 323.571 1060.52C323.668 1057.05 325.141 1053.76 327.667 1051.37C330.192 1048.98 333.563 1047.69 337.037 1047.79H337.273C344.845 1047.79 363.054 1038.59 401.149 978.544C402.16 976.949 403.504 975.591 405.089 974.565C406.674 973.538 408.462 972.866 410.331 972.594C412.199 972.323 414.105 972.459 415.916 972.993C417.728 973.527 419.402 974.446 420.825 975.688C450.742 1001.41 483.37 1023.79 518.132 1042.45C519.74 1043.18 521.185 1044.23 522.377 1045.53C523.569 1046.84 524.486 1048.37 525.07 1050.04C525.655 1051.7 525.896 1053.47 525.78 1055.24C525.663 1057 525.191 1058.72 524.391 1060.3C523.591 1061.87 522.481 1063.27 521.127 1064.41C519.773 1065.54 518.203 1066.39 516.512 1066.91C514.821 1067.42 513.044 1067.58 511.287 1067.39C509.53 1067.2 507.83 1066.66 506.289 1065.79C473.981 1048.62 443.442 1028.31 415.113 1005.16C383.176 1053.24 359.491 1073.99 337.273 1073.99Z" fill="#263238"/>
<path d="M418.336 973.33H417.209C415.151 973.032 413.294 971.929 412.047 970.264C410.799 968.6 410.263 966.508 410.555 964.448C412.415 951.348 410.109 902.538 393.577 864.548C392.844 862.869 392.72 860.987 393.227 859.226C393.734 857.466 394.84 855.938 396.354 854.906C432.248 830.462 508.7 827.527 511.949 827.422C512.981 827.388 514.01 827.557 514.976 827.92C515.943 828.284 516.829 828.834 517.583 829.539C518.337 830.245 518.945 831.092 519.372 832.032C519.799 832.973 520.036 833.988 520.071 835.02C520.105 836.053 519.936 837.081 519.573 838.048C519.209 839.015 518.659 839.901 517.954 840.655C517.248 841.409 516.401 842.017 515.461 842.444C514.52 842.871 513.505 843.108 512.473 843.142C511.765 843.142 444.929 845.762 410.607 864.626C425.227 902.459 428.554 949.593 426.117 966.649C425.835 968.51 424.894 970.208 423.467 971.434C422.039 972.66 420.218 973.333 418.336 973.33Z" fill="#263238"/>
<path d="M431.54 963.164C426.3 950.824 402.72 952.213 388.913 962.798C381.524 968.431 371.516 985.434 370.573 991.618C370.258 993.087 370.305 994.61 370.71 996.057C371.114 997.504 371.865 998.831 372.896 999.924C373.927 1001.02 375.208 1001.84 376.629 1002.33C378.05 1002.82 379.568 1002.95 381.053 1002.73C390.092 1001.94 402.484 988.814 402.484 988.814C394.231 996.91 404.895 1002.62 420.824 990.91C429.523 984.386 437.383 976.972 431.54 963.164Z" fill="#407BFF"/>
<path d="M882.18 802.139C882.059 802.166 881.934 802.166 881.813 802.139C881.646 802.094 881.49 802.016 881.354 801.909C881.218 801.802 881.105 801.669 881.021 801.517C880.938 801.365 880.887 801.198 880.87 801.026C880.852 800.854 880.87 800.68 880.922 800.515C884.407 788.358 888.206 780.943 893.21 776.935C892.426 774.117 892.573 771.121 893.629 768.394C894.85 765.21 897.006 762.47 899.813 760.534C899.05 759.709 898.508 758.705 898.237 757.615C897.967 756.524 897.977 755.383 898.267 754.298C899.215 751.016 901.178 748.118 903.874 746.019C902.901 744.931 902.369 743.521 902.38 742.063C902.38 734.203 916.816 722.36 933.191 720.107C933.539 720.058 933.891 720.15 934.171 720.361C934.451 720.572 934.636 720.886 934.685 721.234C934.733 721.581 934.642 721.934 934.431 722.214C934.219 722.494 933.906 722.678 933.558 722.727C917.995 724.849 904.948 736.115 905 742.063C904.995 742.949 905.333 743.804 905.943 744.447C909.468 742.057 913.433 740.393 917.607 739.551C921.782 738.71 926.082 738.709 930.257 739.547C938.3 741.093 941.575 742.796 941.209 745.233C940.475 749.818 923.366 750.787 911.891 749.425C909.835 749.238 907.834 748.66 905.996 747.722C903.525 749.48 901.687 751.989 900.756 754.874C900.531 755.638 900.533 756.45 900.761 757.213C900.988 757.976 901.433 758.656 902.04 759.171C906.913 756.551 913.751 755.608 922.79 757.599C934.659 760.219 935.104 761.66 935.392 762.525C935.484 762.83 935.492 763.155 935.413 763.464C935.335 763.774 935.174 764.056 934.947 764.28C932.458 766.9 914.249 765.669 905.105 763.416C904.001 763.164 902.935 762.767 901.935 762.237C899.228 763.881 897.145 766.379 896.014 769.337C895.257 771.251 895.048 773.337 895.411 775.363C895.877 775.084 896.358 774.83 896.852 774.603C902.275 771.983 908.825 772.455 916.921 775.913C922.161 778.192 924.781 780.236 925.043 782.306C925.055 782.837 924.922 783.361 924.659 783.822C924.396 784.284 924.012 784.665 923.55 784.926C919.541 787.546 905.55 787.179 898.267 783.301C896.592 782.391 895.197 781.042 894.232 779.398C889.961 783.328 886.503 790.323 883.359 801.301C883.264 801.539 883.102 801.745 882.893 801.893C882.684 802.042 882.436 802.127 882.18 802.139V802.139ZM896.38 777.695C897.11 779.05 898.221 780.161 899.577 780.891C905.498 784.035 917.131 784.742 921.48 782.987C922.371 782.62 922.502 782.332 922.502 782.332C922.502 782.332 922.371 780.865 915.952 778.114C908.616 774.97 902.852 774.524 898.057 776.751C897.479 777.03 896.919 777.345 896.38 777.695V777.695ZM905.131 760.481L905.786 760.665C914.318 762.631 923.099 763.293 931.829 762.63C928.732 761.481 925.541 760.604 922.292 760.01C916.649 758.481 910.682 758.645 905.131 760.481V760.481ZM908.432 745.757C909.642 746.19 910.9 746.472 912.179 746.595C925.279 748.141 936.781 746.333 938.379 744.683C937.934 744.29 936.178 743.163 929.681 741.932C922.369 740.473 914.776 741.84 908.432 745.757V745.757Z" fill="#263238"/>
<path d="M541.109 1069.62C542.838 1069.06 542.262 1067.39 540.323 1067.39H504.848C437.305 1060.24 390.119 1069.82 419.856 1072.08C449.593 1074.33 417.76 1073.86 396.04 1082.09C374.32 1090.31 557.563 1092.38 574.2 1082.09C589.501 1072.6 517.162 1077.29 541.109 1069.62Z" fill="#263238"/>
<path d="M795.091 1080.07L486.455 1069.82L473.644 770.568L838.112 778.716L795.091 1080.07Z" fill="#407BFF"/>
<path d="M582.819 1074.33C582.489 1074.33 582.171 1074.21 581.928 1073.98C581.685 1073.76 581.535 1073.45 581.509 1073.13L556.776 772.559C556.754 772.213 556.868 771.872 557.092 771.608C557.317 771.344 557.636 771.178 557.981 771.144C558.326 771.129 558.664 771.245 558.926 771.468C559.189 771.692 559.357 772.007 559.396 772.35L584.26 1072.92C584.274 1073.09 584.254 1073.26 584.201 1073.43C584.149 1073.59 584.064 1073.74 583.952 1073.87C583.84 1074.01 583.703 1074.11 583.549 1074.19C583.395 1074.27 583.227 1074.32 583.055 1074.33H582.819Z" fill="#263238"/>
<path d="M795.092 1080.07L878.041 1067.44L904.162 789.17L838.112 778.716L795.092 1080.07Z" fill="#407BFF"/>
<path opacity="0.2" d="M795.092 1080.07L878.041 1067.44L904.162 789.17L838.112 778.716L795.092 1080.07Z" fill="black"/>
<path d="M512.813 1012.16L505.215 834.339C505.027 829.946 505.743 825.562 507.318 821.456C508.892 817.351 511.292 813.612 514.369 810.472C517.446 807.331 521.135 804.855 525.207 803.196C529.279 801.538 533.648 800.732 538.043 800.829L768.761 806.069C773.304 806.172 777.773 807.236 781.875 809.193C785.976 811.149 789.616 813.953 792.555 817.419C795.494 820.885 797.664 824.934 798.924 829.301C800.183 833.667 800.502 838.251 799.86 842.749L774.289 1021.8C773.182 1029.64 769.22 1036.8 763.162 1041.9C757.104 1047 749.376 1049.69 741.46 1049.44L543.938 1042.89C535.83 1042.64 528.116 1039.33 522.343 1033.63C516.57 1027.93 513.166 1020.26 512.813 1012.16V1012.16Z" fill="#263238"/>
<path d="M537.755 855.404L573.439 856.53L573.151 865.727L550.802 865.019L550.593 871.884L571.317 872.539L571.029 881.342L550.305 880.661L550.043 889.176L573.02 889.909L572.706 899.656L536.366 898.503L537.755 855.404Z" fill="white"/>
<path d="M580.068 899.892L581.431 856.792L603.648 857.5C606.834 857.484 610.004 857.943 613.054 858.862C615.216 859.586 617.066 861.029 618.294 862.949C619.205 864.348 619.818 865.92 620.094 867.566C620.371 869.212 620.306 870.898 619.903 872.517C619.5 874.137 618.767 875.657 617.751 876.981C616.735 878.305 615.457 879.406 613.997 880.215C612.508 880.982 610.908 881.513 609.255 881.787C610.473 882.18 611.629 882.744 612.687 883.464C613.452 884.174 614.137 884.965 614.731 885.822C615.406 886.638 616.002 887.515 616.513 888.442L622.565 901.149L607.526 900.651L600.819 887.263C600.287 885.985 599.502 884.826 598.513 883.857C597.573 883.177 596.451 882.794 595.291 882.757H594.112L593.561 900.232L580.068 899.892ZM594.269 874.687L599.876 874.871C601.066 874.798 602.249 874.632 603.413 874.373C604.29 874.239 605.085 873.781 605.64 873.089C606.206 872.39 606.528 871.525 606.557 870.626C606.606 870.027 606.522 869.424 606.308 868.862C606.095 868.3 605.759 867.793 605.325 867.377C603.863 866.433 602.137 865.983 600.4 866.094L594.531 865.91L594.269 874.687Z" fill="white"/>
<path d="M626.914 901.28L628.276 858.181L650.468 858.888C653.654 858.869 656.824 859.329 659.874 860.25C662.04 860.967 663.891 862.411 665.114 864.338C666.443 866.437 667.068 868.906 666.895 871.385C666.903 873.476 666.344 875.53 665.279 877.329C664.213 879.128 662.68 880.605 660.843 881.603C659.352 882.366 657.752 882.896 656.101 883.175C657.312 883.566 658.459 884.131 659.507 884.852C660.29 885.541 660.985 886.325 661.577 887.184C662.246 888.003 662.843 888.88 663.358 889.804L669.41 902.485L654.372 902.013L647.664 888.625C647.128 887.349 646.345 886.191 645.359 885.219C644.423 884.512 643.283 884.126 642.11 884.119H640.957L640.381 901.62L626.914 901.28ZM641.088 876.075L646.721 876.233C647.912 876.187 649.097 876.029 650.258 875.761C651.129 875.631 651.917 875.172 652.459 874.477C653.046 873.79 653.371 872.918 653.376 872.014C653.433 871.417 653.354 870.815 653.145 870.252C652.937 869.689 652.604 869.181 652.171 868.765C650.71 867.797 648.967 867.346 647.219 867.482L641.376 867.298L641.088 876.075Z" fill="white"/>
<path d="M671.559 881.263C671.356 878.256 671.823 875.241 672.924 872.435C674.026 869.629 675.735 867.102 677.93 865.035C680.124 862.969 682.749 861.414 685.616 860.482C688.482 859.551 691.52 859.266 694.51 859.648C697.527 859.548 700.534 860.056 703.352 861.14C706.169 862.225 708.74 863.865 710.911 865.962C712.849 868.194 714.313 870.796 715.214 873.611C716.115 876.426 716.434 879.395 716.151 882.337C716.172 886.618 715.166 890.841 713.217 894.651C711.45 897.769 708.809 900.302 705.619 901.935C701.859 903.732 697.698 904.527 693.541 904.241C689.395 904.275 685.295 903.38 681.541 901.621C678.345 899.887 675.737 897.242 674.048 894.023C672.066 890.077 671.206 885.664 671.559 881.263V881.263ZM684.868 881.735C684.475 885.037 685.224 888.375 686.991 891.193C687.817 892.115 688.82 892.861 689.941 893.387C691.061 893.914 692.276 894.209 693.514 894.255C694.751 894.301 695.984 894.098 697.141 893.658C698.298 893.217 699.355 892.548 700.248 891.691C702.19 888.749 703.111 885.251 702.868 881.735C703.219 878.577 702.45 875.396 700.693 872.748C699.899 871.833 698.917 871.099 697.814 870.597C696.711 870.095 695.512 869.837 694.3 869.84C693.078 869.752 691.851 869.942 690.712 870.396C689.573 870.85 688.551 871.555 687.724 872.46C685.74 875.134 684.732 878.408 684.868 881.735V881.735Z" fill="white"/>
<path d="M722.885 904.45L724.247 861.325L746.439 862.032C749.623 862.027 752.792 862.486 755.844 863.395C758.001 864.13 759.846 865.569 761.084 867.482C762.407 869.584 763.031 872.051 762.866 874.53C762.878 876.625 762.322 878.684 761.256 880.488C760.19 882.292 758.655 883.773 756.814 884.774C755.316 885.515 753.719 886.036 752.072 886.32C753.284 886.718 754.431 887.292 755.478 888.023C756.261 888.712 756.956 889.495 757.547 890.354C758.222 891.17 758.819 892.047 759.329 892.974L765.381 905.681L750.342 905.21L743.635 891.795C743.102 890.525 742.318 889.376 741.33 888.415C740.39 887.712 739.254 887.318 738.081 887.289H736.928L736.352 904.79L722.885 904.45ZM737.059 879.219L742.692 879.403C743.883 879.357 745.067 879.2 746.229 878.931C747.097 878.791 747.881 878.334 748.43 877.647C749.048 876.917 749.375 875.984 749.347 875.027C749.403 874.434 749.324 873.835 749.116 873.277C748.907 872.719 748.574 872.215 748.142 871.805C746.68 870.837 744.937 870.385 743.19 870.521L737.347 870.338L737.059 879.219Z" fill="white"/>
<path d="M744.081 977.679C743.589 977.688 743.101 977.593 742.649 977.398C742.197 977.204 741.792 976.916 741.461 976.553L719.033 952.003L694.825 974.116C694.154 974.73 693.267 975.054 692.358 975.014C691.449 974.975 690.593 974.576 689.978 973.906L667.55 949.357L643.342 971.47C642.671 972.084 641.784 972.407 640.875 972.368C639.966 972.329 639.11 971.93 638.495 971.26L616.041 946.711L591.859 968.824C591.506 969.143 591.091 969.387 590.641 969.54C590.19 969.693 589.713 969.753 589.239 969.714C588.328 969.66 587.474 969.257 586.854 968.588L564.427 944.064L540.245 966.151C539.569 966.767 538.678 967.091 537.765 967.052C536.852 967.012 535.991 966.613 535.371 965.941C535.065 965.609 534.829 965.22 534.675 964.795C534.521 964.371 534.453 963.92 534.475 963.469C534.497 963.018 534.608 962.575 534.803 962.168C534.997 961.76 535.27 961.395 535.607 961.094L562.331 936.65C563.006 936.034 563.898 935.71 564.811 935.749C565.724 935.789 566.585 936.188 567.204 936.859L589.632 961.409L613.814 939.296C614.5 938.693 615.39 938.375 616.303 938.405C617.215 938.454 618.071 938.859 618.687 939.532L641.115 964.081L665.323 941.969C665.654 941.661 666.042 941.422 666.466 941.266C666.889 941.11 667.34 941.04 667.791 941.059C668.242 941.079 668.684 941.188 669.093 941.38C669.501 941.572 669.868 941.843 670.17 942.178L692.598 966.728L716.806 944.615C717.477 944 718.364 943.677 719.273 943.716C720.182 943.756 721.038 944.154 721.653 944.824L746.701 972.02C747.148 972.52 747.44 973.14 747.542 973.803C747.643 974.467 747.549 975.146 747.271 975.757C746.994 976.368 746.544 976.885 745.977 977.245C745.411 977.605 744.752 977.792 744.081 977.784V977.679Z" fill="white"/>
<path d="M329.465 1086.44L313.064 1078.6L298.444 1007.42L306.383 998.691L329.465 1086.44Z" fill="#407BFF"/>
<path d="M329.465 1086.44L351.237 1073.7L332.583 1015.07L306.383 998.691L329.465 1086.44Z" fill="#407BFF"/>
<path opacity="0.2" d="M329.465 1086.44L351.237 1073.7L332.583 1015.07L306.383 998.691L329.465 1086.44Z" fill="black"/>
<path d="M686.44 1099.38H684.632C681.158 1099.28 677.863 1097.81 675.472 1095.29C673.082 1092.77 671.792 1089.4 671.886 1085.92C671.979 1082.45 673.45 1079.16 675.973 1076.76C678.496 1074.37 681.865 1073.08 685.339 1073.18C705.513 1073.83 748.219 1061.44 772.638 1037.76C774.112 1036.31 775.908 1035.23 777.878 1034.61C819.248 1022.19 834.627 1047.27 835.256 1048.34L812.724 1061.68C812.803 1061.84 812.899 1062 813.012 1062.15C812.776 1061.81 806.907 1054.29 788.253 1058.9C757.625 1086.83 710.622 1099.38 686.44 1099.38Z" fill="#263238"/>
<path d="M684.842 1116.77L637.131 1113.79L633.385 1025.81L697.496 1028.19L684.842 1116.77Z" fill="#407BFF"/>
<path d="M684.842 1116.78L696.003 1105.67L702.92 1050.83L697.496 1028.19L684.842 1116.78Z" fill="#407BFF"/>
<path opacity="0.2" d="M684.842 1116.78L696.003 1105.67L702.92 1050.83L697.496 1028.19L684.842 1116.78Z" fill="black"/>
<path d="M961.305 1083.47C959.592 1083.47 957.927 1082.91 956.562 1081.88C929.314 1061.18 892.503 1024.42 878.382 988.971C878.17 988.458 878.02 987.922 877.936 987.373C871.046 946.396 864.469 860.172 864.181 856.53C864.104 855.498 864.231 854.461 864.554 853.477C864.877 852.494 865.391 851.584 866.067 850.8C867.43 849.215 869.367 848.237 871.452 848.081C873.536 847.924 875.598 848.602 877.182 849.966C878.767 851.329 879.745 853.267 879.901 855.351C879.901 856.216 886.635 943.278 893.342 983.915C907.437 1018.39 945.742 1053.79 966.125 1069.35C967.438 1070.35 968.404 1071.73 968.888 1073.31C969.372 1074.88 969.349 1076.57 968.822 1078.13C968.295 1079.69 967.29 1081.05 965.951 1082.01C964.612 1082.96 963.005 1083.48 961.357 1083.47H961.305Z" fill="#263238"/>
<path d="M997.644 1087.43C991.565 1087.43 984.675 1084.68 977.155 1079.26C975.467 1078.03 974.333 1076.19 974.004 1074.13C973.675 1072.07 974.177 1069.97 975.4 1068.28C976.623 1066.59 978.466 1065.46 980.525 1065.13C982.584 1064.8 984.689 1065.3 986.378 1066.52C992.875 1071.21 996.412 1071.76 997.644 1071.76C999.728 1071.76 1001.73 1072.59 1003.2 1074.07C1004.68 1075.54 1005.5 1077.54 1005.5 1079.62C1005.5 1081.71 1004.68 1083.71 1003.2 1085.18C1001.73 1086.66 999.728 1087.48 997.644 1087.48V1087.43Z" fill="#263238"/>
<path d="M979.356 1079.02C987.766 1054.05 1022.25 1058.98 1034.14 1062.7C1044.3 1065.65 1054.05 1069.87 1063.14 1075.27C1069.56 1079.47 1069.67 1086.51 1061.1 1090.52C1050.62 1095.45 1024 1091.07 1024 1091.07C1037.73 1097.07 1024 1106.79 999.871 1097.26C992.037 1094.16 976.396 1088.19 979.356 1079.02Z" fill="#407BFF"/>
<path d="M895.674 867.22C892.556 888.442 874.976 904.083 860.671 901.987C846.365 899.891 845.789 881.028 848.907 859.701C852.025 838.374 857.684 823.021 871.989 825.117C886.294 827.213 898.792 846.077 895.674 867.22Z" fill="#263238"/>
<path d="M549.886 782.594C551.072 782.594 552.034 781.632 552.034 780.446C552.034 779.259 551.072 778.297 549.886 778.297C548.699 778.297 547.737 779.259 547.737 780.446C547.737 781.632 548.699 782.594 549.886 782.594Z" fill="#263238"/>
<path d="M571.71 795.903C571.71 796.328 571.584 796.744 571.348 797.097C571.112 797.45 570.776 797.726 570.384 797.888C569.991 798.051 569.559 798.093 569.142 798.01C568.726 797.928 568.343 797.723 568.042 797.422C567.742 797.122 567.537 796.739 567.454 796.322C567.371 795.906 567.414 795.474 567.577 795.081C567.739 794.689 568.015 794.353 568.368 794.117C568.721 793.881 569.137 793.755 569.561 793.755C570.131 793.755 570.678 793.981 571.081 794.384C571.484 794.787 571.71 795.334 571.71 795.903Z" fill="#263238"/>
<path d="M574.121 1049.78C574.121 1050.21 573.995 1050.62 573.759 1050.98C573.523 1051.33 573.187 1051.6 572.795 1051.77C572.402 1051.93 571.97 1051.97 571.553 1051.89C571.137 1051.81 570.754 1051.6 570.453 1051.3C570.153 1051 569.948 1050.62 569.866 1050.2C569.783 1049.78 569.825 1049.35 569.988 1048.96C570.15 1048.57 570.426 1048.23 570.779 1048C571.132 1047.76 571.548 1047.63 571.973 1047.63C572.542 1047.63 573.089 1047.86 573.492 1048.26C573.895 1048.67 574.121 1049.21 574.121 1049.78V1049.78Z" fill="#263238"/>
<path d="M593.797 1065.27C593.797 1065.69 593.671 1066.11 593.435 1066.46C593.199 1066.81 592.863 1067.09 592.471 1067.25C592.078 1067.41 591.646 1067.46 591.229 1067.37C590.812 1067.29 590.43 1067.09 590.129 1066.78C589.829 1066.48 589.624 1066.1 589.541 1065.68C589.458 1065.27 589.501 1064.84 589.664 1064.44C589.826 1064.05 590.101 1063.72 590.455 1063.48C590.808 1063.24 591.223 1063.12 591.648 1063.12C592.218 1063.12 592.765 1063.34 593.168 1063.75C593.57 1064.15 593.797 1064.7 593.797 1065.27Z" fill="#263238"/>
<path d="M216.177 1091.02C212.405 1090.84 208.721 1089.82 205.397 1088.03C202.072 1086.24 199.193 1083.72 196.972 1080.67C196.863 1080.53 196.784 1080.37 196.739 1080.2C196.695 1080.03 196.685 1079.85 196.712 1079.67C196.739 1079.49 196.802 1079.33 196.896 1079.18C196.99 1079.02 197.114 1078.89 197.26 1078.79C197.406 1078.69 197.571 1078.62 197.745 1078.59C197.919 1078.55 198.099 1078.55 198.273 1078.59C198.447 1078.62 198.612 1078.69 198.757 1078.79C198.903 1078.9 199.027 1079.03 199.12 1079.18C204.02 1086.25 214.84 1090 219.556 1087.77C220.029 1087.57 220.45 1087.27 220.788 1086.88C218.405 1085.83 216.317 1084.21 214.708 1082.17C213.1 1080.12 212.02 1077.71 211.565 1075.14C210.963 1071.82 210.491 1067.28 213.216 1066.71C216.989 1065.87 221.914 1074.96 223.696 1081.85C224.019 1082.99 224.134 1084.18 224.037 1085.36C225.548 1085.81 227.137 1085.94 228.7 1085.73C229.404 1085.67 230.09 1085.47 230.712 1085.14C231.335 1084.81 231.881 1084.35 232.316 1083.79C230.591 1082.49 229.161 1080.84 228.118 1078.95C227.075 1077.05 226.443 1074.96 226.264 1072.81C225.268 1065.63 226.028 1064.4 226.814 1063.77C227.068 1063.58 227.372 1063.46 227.692 1063.42C228.011 1063.39 228.333 1063.45 228.622 1063.59C231.425 1064.77 234.805 1074.93 235.46 1080.7C235.538 1081.3 235.538 1081.91 235.46 1082.51C236.589 1082.94 237.787 1083.17 238.997 1083.19C241.218 1083.27 243.416 1082.7 245.311 1081.54C244.944 1081.3 244.604 1081.04 244.263 1080.78C241.643 1078.44 240.438 1074.72 240.909 1069.43C241.276 1065.32 242.193 1063.06 243.844 1062.36C244.376 1062.14 244.959 1062.09 245.522 1062.2C246.085 1062.31 246.603 1062.59 247.014 1062.99C248.783 1064.94 250.104 1067.25 250.887 1069.77C251.67 1072.29 251.895 1074.94 251.547 1077.55C251.319 1078.64 250.864 1079.67 250.21 1080.57C255.031 1081.4 261.791 1080.04 267.633 1078.6C267.805 1078.56 267.984 1078.55 268.159 1078.58C268.333 1078.61 268.501 1078.67 268.652 1078.76C268.803 1078.86 268.934 1078.98 269.038 1079.12C269.142 1079.26 269.216 1079.43 269.258 1079.6C269.299 1079.77 269.306 1079.95 269.278 1080.12C269.251 1080.3 269.189 1080.46 269.096 1080.62C269.004 1080.77 268.883 1080.9 268.739 1081C268.596 1081.11 268.434 1081.18 268.262 1081.22C261.162 1082.98 253.512 1084.42 248.114 1082.85C245.48 1084.85 242.254 1085.92 238.944 1085.89C237.476 1085.87 236.022 1085.59 234.648 1085.07C234.038 1086.02 233.22 1086.81 232.257 1087.38C231.294 1087.96 230.212 1088.31 229.093 1088.4C227.124 1088.65 225.123 1088.48 223.224 1087.9C222.613 1088.93 221.698 1089.75 220.604 1090.23C219.199 1090.8 217.691 1091.07 216.177 1091.02V1091.02ZM213.923 1069.33C213.561 1071.11 213.633 1072.95 214.133 1074.7C214.503 1076.79 215.372 1078.77 216.667 1080.46C217.962 1082.14 219.645 1083.49 221.574 1084.39C221.537 1083.77 221.432 1083.16 221.259 1082.56C219.216 1075.06 215.286 1069.9 213.923 1069.33V1069.33ZM228.517 1067.05C228.534 1068.85 228.683 1070.66 228.962 1072.44C229.251 1075.64 230.662 1078.63 232.945 1080.88C232.3 1076.04 230.801 1071.36 228.517 1067.05V1067.05ZM244.997 1064.77C244.997 1064.77 244.001 1065.27 243.634 1069.64C243.267 1074.02 244.027 1077.03 246.071 1078.78C246.554 1079.18 247.082 1079.51 247.643 1079.78C248.332 1079.04 248.819 1078.14 249.058 1077.16C249.524 1073.04 248.41 1068.89 245.94 1065.55C245.39 1064.87 245.075 1064.77 244.997 1064.77V1064.77Z" fill="#263238"/>
<path d="M599.64 1110.83L606.74 1098.51L599.64 1086.2H592.042L596.339 1098.51L592.042 1110.83H599.64Z" fill="#263238"/>
<path d="M592.539 1104.93C591.664 1104.99 590.786 1104.86 589.96 1104.57C589.134 1104.27 588.378 1103.81 587.738 1103.21C587.098 1102.61 586.588 1101.88 586.239 1101.08C585.89 1100.27 585.71 1099.4 585.71 1098.53C585.71 1097.65 585.89 1096.78 586.239 1095.98C586.588 1095.17 587.098 1094.45 587.738 1093.85C588.378 1093.24 589.134 1092.78 589.96 1092.49C590.786 1092.19 591.664 1092.06 592.539 1092.12L580.487 1089.71L577.265 1099.46L582.662 1107.68L592.539 1104.93Z" fill="#263238"/>
<path d="M593.588 1086.2H579.361L572.261 1098.51L579.361 1110.83H593.588L600.688 1098.51L593.588 1086.2ZM586.487 1104.93C585.217 1104.94 583.973 1104.57 582.914 1103.86C581.855 1103.16 581.028 1102.16 580.538 1100.99C580.048 1099.82 579.918 1098.52 580.162 1097.28C580.407 1096.03 581.016 1094.88 581.913 1093.98C582.81 1093.08 583.953 1092.47 585.199 1092.22C586.445 1091.97 587.737 1092.1 588.912 1092.58C590.086 1093.07 591.09 1093.89 591.796 1094.94C592.503 1096 592.88 1097.24 592.88 1098.51C592.88 1100.21 592.207 1101.84 591.009 1103.04C589.811 1104.25 588.185 1104.93 586.487 1104.93V1104.93Z" fill="#407BFF"/>
<path d="M1094.87 1085.36L1089.61 1076.22L1094.87 1067.07H1100.5L1097.33 1076.22L1100.5 1085.36H1094.87Z" fill="#407BFF"/>
<path d="M1100.14 1080.99C1100.79 1081.03 1101.45 1080.95 1102.07 1080.73C1102.69 1080.51 1103.26 1080.17 1103.74 1079.72C1104.22 1079.28 1104.6 1078.74 1104.86 1078.14C1105.12 1077.54 1105.26 1076.89 1105.26 1076.23C1105.26 1075.57 1105.12 1074.93 1104.86 1074.32C1104.6 1073.72 1104.22 1073.18 1103.74 1072.74C1103.26 1072.29 1102.69 1071.95 1102.07 1071.73C1101.45 1071.51 1100.79 1071.43 1100.14 1071.47L1109.1 1069.69L1111.48 1076.92L1107.5 1083.03L1100.14 1080.99Z" fill="#407BFF"/>
<path d="M1099.38 1067.07H1109.86L1115.1 1076.22L1109.86 1085.36H1099.38L1094.14 1076.22L1099.38 1067.07ZM1104.62 1080.99C1105.56 1080.99 1106.49 1080.72 1107.27 1080.19C1108.06 1079.67 1108.68 1078.93 1109.04 1078.06C1109.41 1077.19 1109.51 1076.23 1109.32 1075.3C1109.14 1074.38 1108.69 1073.52 1108.03 1072.85C1107.36 1072.19 1106.51 1071.73 1105.58 1071.54C1104.66 1071.36 1103.7 1071.45 1102.83 1071.81C1101.95 1072.17 1101.21 1072.78 1100.68 1073.57C1100.16 1074.35 1099.88 1075.27 1099.88 1076.22C1099.87 1076.84 1099.99 1077.47 1100.23 1078.05C1100.47 1078.63 1100.82 1079.15 1101.27 1079.6C1101.71 1080.04 1102.24 1080.39 1102.82 1080.63C1103.4 1080.87 1104.02 1080.99 1104.64 1080.99H1104.62Z" fill="#263238"/>
<path d="M898.661 1097.52H910.503C911.985 1097.51 913.405 1096.92 914.451 1095.87C915.496 1094.82 916.084 1093.39 916.084 1091.91V1091.91C916.084 1090.43 915.496 1089.01 914.451 1087.96C913.405 1086.9 911.985 1086.31 910.503 1086.3H898.661C897.174 1086.3 895.747 1086.89 894.696 1087.95C893.644 1089 893.054 1090.42 893.054 1091.91V1091.91C893.054 1093.4 893.644 1094.82 894.696 1095.88C895.747 1096.93 897.174 1097.52 898.661 1097.52V1097.52Z" fill="#263238"/>
<path d="M879.613 1086.93C880.712 1084.93 882.372 1083.3 884.388 1082.23C886.405 1081.17 888.689 1080.71 890.96 1080.93C893.23 1081.15 895.388 1082.02 897.167 1083.45C898.946 1084.88 900.268 1086.8 900.97 1088.97C901.673 1091.14 901.724 1093.46 901.119 1095.66C900.514 1097.86 899.279 1099.84 897.565 1101.34C895.852 1102.85 893.735 1103.82 891.476 1104.14C889.217 1104.45 886.915 1104.1 884.853 1103.12C882.02 1101.66 879.879 1099.14 878.897 1096.11C877.916 1093.08 878.173 1089.78 879.613 1086.93Z" fill="#407BFF"/>
<path d="M882.808 1103.12L886.055 1104.65L897.338 1080.72L894.092 1079.19L882.808 1103.12Z" fill="#263238"/>
<path d="M92.4271 847V809.6H104.032C107.149 809.6 109.789 810.682 111.952 812.845C114.115 815.008 115.197 817.648 115.197 820.765C115.197 823.882 114.115 826.522 111.952 828.685C109.789 830.848 107.149 831.93 104.032 831.93H96.8271V847H92.4271ZM103.867 813.615H96.8271V827.915H103.867C105.774 827.915 107.405 827.218 108.762 825.825C110.155 824.395 110.852 822.708 110.852 820.765C110.852 818.822 110.155 817.153 108.762 815.76C107.405 814.33 105.774 813.615 103.867 813.615ZM128.715 847.77C125.562 847.77 122.977 846.578 120.96 844.195C118.944 841.812 117.935 838.383 117.935 833.91C117.935 829.4 119.2 825.752 121.73 822.965C124.297 820.142 127.469 818.73 131.245 818.73C135.059 818.73 138.487 819.793 141.53 821.92V841.5L142.08 847L138.45 847.275L137.515 842.325C135.462 845.955 132.529 847.77 128.715 847.77ZM122.115 833.8C122.115 837.1 122.812 839.63 124.205 841.39C125.599 843.15 127.377 844.03 129.54 844.03C131.74 844.03 133.592 842.948 135.095 840.785C136.599 838.585 137.35 835.487 137.35 831.49V823.845C135.517 822.928 133.555 822.47 131.465 822.47C128.752 822.47 126.515 823.533 124.755 825.66C122.995 827.75 122.115 830.463 122.115 833.8ZM135.755 806.575C136.929 806.575 137.845 807.547 138.505 809.49L128.605 817.575L127.285 816.2L132.895 808.5C133.849 807.217 134.802 806.575 135.755 806.575ZM172.575 845.13C172.575 849.53 171.292 853.123 168.725 855.91C166.195 858.733 163.024 860.145 159.21 860.145C155.434 860.145 152.024 859.082 148.98 856.955L151.07 853.71C151.95 854.443 153.124 855.048 154.59 855.525C156.057 856.002 157.542 856.24 159.045 856.24C161.759 856.24 163.995 855.195 165.755 853.105C167.515 851.015 168.395 848.338 168.395 845.075V842.49C166.342 846.01 163.464 847.77 159.76 847.77C156.607 847.77 154.022 846.578 152.005 844.195C149.989 841.812 148.98 838.383 148.98 833.91C148.98 829.4 150.245 825.752 152.775 822.965C155.342 820.142 158.514 818.73 162.29 818.73C166.104 818.73 169.532 819.793 172.575 821.92V845.13ZM153.16 833.8C153.16 837.1 153.857 839.63 155.25 841.39C156.644 843.15 158.422 844.03 160.585 844.03C162.785 844.03 164.637 842.93 166.14 840.73C167.644 838.53 168.395 835.395 168.395 831.325V823.845C166.562 822.928 164.6 822.47 162.51 822.47C159.797 822.47 157.56 823.533 155.8 825.66C154.04 827.75 153.16 830.463 153.16 833.8ZM182.288 813.505C181.848 812.992 181.628 812.35 181.628 811.58C181.628 810.81 181.848 810.187 182.288 809.71C182.728 809.197 183.37 808.94 184.213 808.94C185.056 808.94 185.716 809.197 186.193 809.71C186.67 810.223 186.908 810.847 186.908 811.58C186.908 812.313 186.67 812.937 186.193 813.45C185.716 813.963 185.056 814.22 184.213 814.22C183.37 814.22 182.728 813.982 182.288 813.505ZM182.178 847V819.5H186.358V847H182.178ZM209.45 818.73C215.464 818.73 218.47 822.58 218.47 830.28V847H214.29V830.28C214.29 825.073 212.439 822.47 208.735 822.47C206.609 822.47 204.665 823.57 202.905 825.77C201.182 827.97 200.265 830.995 200.155 834.845V847H195.975V825L195.425 819.5L199.055 819.225L200.1 824.89C201.237 822.91 202.649 821.388 204.335 820.325C206.022 819.262 207.727 818.73 209.45 818.73ZM235.869 847.77C232.715 847.77 230.13 846.578 228.114 844.195C226.097 841.812 225.089 838.383 225.089 833.91C225.089 829.4 226.354 825.752 228.884 822.965C231.45 820.142 234.622 818.73 238.399 818.73C242.212 818.73 245.64 819.793 248.684 821.92V841.5L249.234 847L245.604 847.275L244.669 842.325C242.615 845.955 239.682 847.77 235.869 847.77ZM229.269 833.8C229.269 837.1 229.965 839.63 231.359 841.39C232.752 843.15 234.53 844.03 236.694 844.03C238.894 844.03 240.745 842.948 242.249 840.785C243.752 838.585 244.504 835.487 244.504 831.49V823.845C242.67 822.928 240.709 822.47 238.619 822.47C235.905 822.47 233.669 823.533 231.909 825.66C230.149 827.75 229.269 830.463 229.269 833.8ZM285.559 818.73C291.572 818.73 294.579 822.58 294.579 830.28V847H290.399V830.28C290.399 825.073 288.547 822.47 284.844 822.47C282.717 822.47 280.774 823.57 279.014 825.77C277.29 827.97 276.374 830.995 276.264 834.845V847H272.084V825L271.534 819.5L275.164 819.225L276.209 824.89C277.345 822.91 278.757 821.388 280.444 820.325C282.13 819.262 283.835 818.73 285.559 818.73ZM311.977 847.77C308.824 847.77 306.239 846.578 304.222 844.195C302.206 841.812 301.197 838.383 301.197 833.91C301.197 829.4 302.462 825.752 304.992 822.965C307.559 820.142 310.731 818.73 314.507 818.73C318.321 818.73 321.749 819.793 324.792 821.92V841.5L325.342 847L321.712 847.275L320.777 842.325C318.724 845.955 315.791 847.77 311.977 847.77ZM307.467 841.39C308.861 843.15 310.639 844.03 312.802 844.03C314.966 844.03 316.799 843.003 318.302 840.95C319.842 838.86 320.612 835.927 320.612 832.15V823.845C318.779 822.928 316.817 822.47 314.727 822.47C312.014 822.47 309.777 823.533 308.017 825.66C306.257 827.75 305.377 830.463 305.377 833.8C305.377 837.1 306.074 839.63 307.467 841.39ZM317.807 814.55C316.891 814.55 315.626 814.275 314.012 813.725C312.436 813.175 311.281 812.9 310.547 812.9C309.081 812.9 308.219 813.707 307.962 815.32L305.377 814.88C306.037 810.92 307.632 808.94 310.162 808.94C311.079 808.94 312.362 809.215 314.012 809.765C315.699 810.315 316.909 810.59 317.642 810.59C319.109 810.59 319.971 809.783 320.227 808.17L322.812 808.61C322.116 812.57 320.447 814.55 317.807 814.55ZM335.542 843.755C333.525 841.042 332.517 837.54 332.517 833.25C332.517 828.96 333.525 825.477 335.542 822.8C337.559 820.087 340.565 818.73 344.562 818.73C348.595 818.73 351.639 820.087 353.692 822.8C355.745 825.477 356.772 828.96 356.772 833.25C356.772 837.54 355.745 841.042 353.692 843.755C351.639 846.432 348.595 847.77 344.562 847.77C340.565 847.77 337.559 846.432 335.542 843.755ZM338.677 825.495C337.357 827.475 336.697 830.06 336.697 833.25C336.697 836.44 337.357 839.043 338.677 841.06C339.997 843.04 341.977 844.03 344.617 844.03C347.257 844.03 349.237 843.04 350.557 841.06C351.914 839.043 352.592 836.44 352.592 833.25C352.592 830.06 351.914 827.475 350.557 825.495C349.237 823.478 347.257 822.47 344.617 822.47C341.977 822.47 339.997 823.478 338.677 825.495ZM92.8239 911.77C89.5239 911.77 86.7922 910.615 84.6289 908.305C82.5022 905.995 81.4389 902.603 81.4389 898.13C81.4389 893.657 82.7039 889.972 85.2339 887.075C87.7639 884.178 91.0455 882.73 95.0789 882.73C97.6455 882.73 99.7172 883.518 101.294 885.095C102.871 886.635 103.659 888.578 103.659 890.925C103.659 893.235 102.449 895.362 100.029 897.305C97.6455 899.248 94.1622 900.22 89.5789 900.22C88.3689 900.22 87.0855 900.165 85.7289 900.055C85.9855 902.658 86.7739 904.638 88.0939 905.995C89.4505 907.352 91.0822 908.03 92.9889 908.03C96.1789 908.03 98.8372 907.04 100.964 905.06L102.944 907.755C100.157 910.432 96.7839 911.77 92.8239 911.77ZM94.9139 886.47C92.3839 886.47 90.2755 887.368 88.5889 889.165C86.9389 890.962 85.9672 893.345 85.6739 896.315C86.8839 896.498 88.2222 896.59 89.6889 896.59C92.8422 896.59 95.2622 896.003 96.9489 894.83C98.6355 893.657 99.4789 892.3 99.4789 890.76C99.4789 889.623 99.0572 888.633 98.2139 887.79C97.4072 886.91 96.3072 886.47 94.9139 886.47ZM123.754 882.73C129.768 882.73 132.774 886.58 132.774 894.28V911H128.594V894.28C128.594 889.073 126.743 886.47 123.039 886.47C120.913 886.47 118.969 887.57 117.209 889.77C115.486 891.97 114.569 894.995 114.459 898.845V911H110.279V889L109.729 883.5L113.359 883.225L114.404 888.89C115.541 886.91 116.953 885.388 118.639 884.325C120.326 883.262 122.031 882.73 123.754 882.73ZM160.733 908.36C158.093 910.633 155.013 911.77 151.493 911.77C148.01 911.77 145.113 910.597 142.803 908.25C140.53 905.903 139.393 902.493 139.393 898.02C139.393 893.51 140.53 889.843 142.803 887.02C145.113 884.16 148.303 882.73 152.373 882.73C154.903 882.73 157.25 883.39 159.413 884.71L158.368 888.065C156.425 887.002 154.463 886.47 152.483 886.47C149.77 886.47 147.606 887.497 145.993 889.55C144.38 891.603 143.573 894.353 143.573 897.8C143.573 901.21 144.306 903.777 145.773 905.5C147.276 907.187 149.183 908.03 151.493 908.03C154.426 908.03 156.956 907.15 159.083 905.39L160.733 908.36ZM167.239 907.755C165.222 905.042 164.214 901.54 164.214 897.25C164.214 892.96 165.222 889.477 167.239 886.8C169.256 884.087 172.262 882.73 176.259 882.73C180.292 882.73 183.336 884.087 185.389 886.8C187.442 889.477 188.469 892.96 188.469 897.25C188.469 901.54 187.442 905.042 185.389 907.755C183.336 910.432 180.292 911.77 176.259 911.77C172.262 911.77 169.256 910.432 167.239 907.755ZM170.374 889.495C169.054 891.475 168.394 894.06 168.394 897.25C168.394 900.44 169.054 903.043 170.374 905.06C171.694 907.04 173.674 908.03 176.314 908.03C178.954 908.03 180.934 907.04 182.254 905.06C183.611 903.043 184.289 900.44 184.289 897.25C184.289 894.06 183.611 891.475 182.254 889.495C180.934 887.478 178.954 886.47 176.314 886.47C173.674 886.47 171.694 887.478 170.374 889.495ZM209.37 882.73C215.383 882.73 218.39 886.58 218.39 894.28V911H214.21V894.28C214.21 889.073 212.358 886.47 208.655 886.47C206.528 886.47 204.585 887.57 202.825 889.77C201.101 891.97 200.185 894.995 200.075 898.845V911H195.895V889L195.345 883.5L198.975 883.225L200.02 888.89C201.156 886.91 202.568 885.388 204.255 884.325C205.941 883.262 207.646 882.73 209.37 882.73ZM224.128 887.075V883.5H228.308L229.628 875.25H232.488V883.5H238.923V887.075H232.488V905.005C232.488 907.022 233.313 908.03 234.963 908.03C236.21 908.03 237.567 907.498 239.033 906.435L240.573 909.24C238.447 910.927 236.375 911.77 234.358 911.77C232.342 911.77 230.82 911.293 229.793 910.34C228.803 909.35 228.308 907.572 228.308 905.005V887.075H224.128ZM249.596 911H245.416V889L244.866 883.5L248.496 883.225L249.596 889.825C250.696 887.552 252.09 885.828 253.776 884.655C255.463 883.482 257.296 882.895 259.276 882.895L259.551 887.075C253.098 887.588 249.78 892.52 249.596 901.87V911ZM273.332 911.77C270.179 911.77 267.594 910.578 265.577 908.195C263.56 905.812 262.552 902.383 262.552 897.91C262.552 893.4 263.817 889.752 266.347 886.965C268.914 884.142 272.085 882.73 275.862 882.73C279.675 882.73 283.104 883.793 286.147 885.92V905.5L286.697 911L283.067 911.275L282.132 906.325C280.079 909.955 277.145 911.77 273.332 911.77ZM266.732 897.8C266.732 901.1 267.429 903.63 268.822 905.39C270.215 907.15 271.994 908.03 274.157 908.03C276.357 908.03 278.209 906.948 279.712 904.785C281.215 902.585 281.967 899.487 281.967 895.49V887.845C280.134 886.928 278.172 886.47 276.082 886.47C273.369 886.47 271.132 887.533 269.372 889.66C267.612 891.75 266.732 894.463 266.732 897.8ZM304.377 911.77C301.224 911.77 298.639 910.578 296.622 908.195C294.605 905.812 293.597 902.383 293.597 897.91C293.597 893.4 294.862 889.752 297.392 886.965C299.959 884.142 303.204 882.73 307.127 882.73C309.07 882.73 311.032 883.078 313.012 883.775V872.5H317.192V905.5L317.742 911L314.112 911.275L313.177 906.325C311.124 909.955 308.19 911.77 304.377 911.77ZM297.777 897.8C297.777 901.1 298.474 903.63 299.867 905.39C301.26 907.15 303.039 908.03 305.202 908.03C307.402 908.03 309.254 906.948 310.757 904.785C312.26 902.585 313.012 899.487 313.012 895.49V887.845C311.179 886.928 309.217 886.47 307.127 886.47C304.414 886.47 302.177 887.533 300.417 889.66C298.657 891.75 297.777 894.463 297.777 897.8ZM335.422 911.77C332.269 911.77 329.684 910.578 327.667 908.195C325.65 905.812 324.642 902.383 324.642 897.91C324.642 893.4 325.907 889.752 328.437 886.965C331.004 884.142 334.175 882.73 337.952 882.73C341.765 882.73 345.194 883.793 348.237 885.92V905.5L348.787 911L345.157 911.275L344.222 906.325C342.169 909.955 339.235 911.77 335.422 911.77ZM328.822 897.8C328.822 901.1 329.519 903.63 330.912 905.39C332.305 907.15 334.084 908.03 336.247 908.03C338.447 908.03 340.299 906.948 341.802 904.785C343.305 902.585 344.057 899.487 344.057 895.49V887.845C342.224 886.928 340.262 886.47 338.172 886.47C335.459 886.47 333.222 887.533 331.462 889.66C329.702 891.75 328.822 894.463 328.822 897.8ZM358.822 901.1L358.272 874.7H363.002L362.452 901.1H358.822ZM358.382 910.945C357.869 910.358 357.612 909.625 357.612 908.745C357.612 907.865 357.869 907.15 358.382 906.6C358.895 906.013 359.629 905.72 360.582 905.72C361.572 905.72 362.324 906.013 362.837 906.6C363.387 907.15 363.662 907.865 363.662 908.745C363.662 909.625 363.387 910.358 362.837 910.945C362.324 911.495 361.572 911.77 360.582 911.77C359.629 911.77 358.895 911.495 358.382 910.945Z" fill="black"/>
</svg>
