<svg width="858" height="324" viewBox="0 0 858 324" fill="none" xmlns="http://www.w3.org/2000/svg">
<path d="M158.559 260.015H0.105469V188.483L158.559 0.109375H234.387V192.545H273.682V260.015H234.387V318.553H158.559V260.015ZM158.559 192.545V94.0096L74.8142 192.545H158.559Z" fill="#5B40FF"/>
<path d="M300.789 160.724C300.789 101.197 311.5 59.5325 332.922 35.7319C354.345 11.9314 386.99 0.0397879 430.859 0.0571479C451.916 0.0571479 469.216 2.66115 482.756 7.86915C495.057 12.3015 506.321 19.2049 515.853 28.1543C523.888 35.8256 530.695 44.6874 536.034 54.4287C541.318 64.5995 545.299 75.3957 547.883 86.562C553.77 110.417 556.708 134.904 556.632 159.474C556.632 216.276 547.023 257.845 527.806 284.18C508.588 310.515 475.491 323.691 428.515 323.708C402.163 323.708 380.871 319.507 364.639 311.105C348.277 302.566 334.495 289.809 324.72 274.154C317.168 262.627 311.292 246.856 307.091 226.84C302.729 205.075 300.617 182.92 300.789 160.724V160.724ZM387.086 160.932C387.086 200.86 390.601 228.089 397.632 242.62C404.663 257.15 414.879 264.45 428.281 264.519C432.534 264.567 436.754 263.77 440.696 262.174C444.639 260.578 448.226 258.216 451.248 255.223C457.741 249.026 462.515 239.235 465.57 225.85C468.625 212.465 470.153 191.633 470.153 163.354C470.153 121.794 466.629 93.8532 459.581 79.5312C452.533 65.2092 441.96 58.0569 427.864 58.0743C413.49 58.0743 403.074 65.3742 396.616 79.9739C390.158 94.5737 386.981 121.56 387.086 160.932Z" fill="#5B40FF"/>
<path d="M742.011 260.015H583.558V188.483L742.011 0.109375H817.839V192.545H857.264V260.015H817.839V318.553H742.011V260.015ZM742.011 192.545V94.0096L658.292 192.545H742.011Z" fill="#5B40FF"/>
</svg>
