<svg width="981" height="658" viewBox="0 0 981 658" fill="none" xmlns="http://www.w3.org/2000/svg">
<path d="M907.583 3.3306L33.521 59.866C15.0079 61.0635 1.00499 77.5786 2.24471 96.7535L36.277 623.137C37.5167 642.312 53.5296 656.886 72.0427 655.688L946.105 599.153C964.618 597.956 978.621 581.44 977.381 562.265L943.349 35.8817C942.109 16.7068 926.096 2.13315 907.583 3.3306Z" fill="#407BFF" stroke="#263238" stroke-linecap="round" stroke-linejoin="round"/>
<path d="M912.625 1.0631L29.0904 60.1371C25.2924 60.3873 21.5795 61.4107 18.1643 63.1488C14.7491 64.8869 11.6988 67.3054 9.18814 70.2659C6.67748 73.2263 4.75583 76.6703 3.53328 80.4008C2.31073 84.1313 1.81133 88.0748 2.06366 92.0054L11.6925 246L953 183.033L943.371 29.0387C943.129 25.1113 942.142 21.2716 940.465 17.7395C938.789 14.2073 936.456 11.0519 933.601 8.45365C930.745 5.8554 927.423 3.86531 923.824 2.59717C920.224 1.32903 916.419 0.807757 912.625 1.0631Z" fill="#263238" stroke="#263238" stroke-linecap="round" stroke-linejoin="round"/>
<path d="M366.264 506.809C204.237 592.928 98.4847 612.104 35 611.291L36.036 627.941C36.2784 631.875 37.2698 635.721 38.9536 639.258C40.6373 642.795 42.9802 645.954 45.8481 648.555C48.716 651.155 52.0525 653.146 55.6663 654.412C59.2802 655.678 63.1004 656.195 66.9081 655.934L952.835 596.78C956.643 596.53 960.367 595.506 963.791 593.767C967.216 592.028 970.274 589.608 972.792 586.646C975.31 583.683 977.236 580.237 978.462 576.504C979.688 572.771 980.189 568.825 979.936 564.892L961.247 266C707.184 270.922 635.204 363.847 366.264 506.809Z" fill="#263238" stroke="#263238" stroke-linecap="round" stroke-linejoin="round"/>
<path d="M188.563 195.718L110.515 200.766C103.276 201.235 97.7867 207.484 98.2549 214.725L103.078 289.331C103.546 296.571 109.794 302.062 117.034 301.593L195.082 296.545C202.321 296.077 207.81 289.827 207.342 282.587L202.518 207.981C202.05 200.74 195.802 195.25 188.563 195.718Z" fill="white" stroke="#263238" stroke-linecap="round" stroke-linejoin="round"/>
<path d="M161.521 232.374L142.009 233.637C138.472 233.865 135.79 236.919 136.019 240.457L137.211 258.905C137.44 262.443 140.493 265.126 144.03 264.897L163.542 263.635C167.079 263.406 169.761 260.352 169.532 256.815L168.339 238.366C168.111 234.828 165.058 232.146 161.521 232.374Z" fill="white" stroke="#263238" stroke-linecap="round" stroke-linejoin="round"/>
<path d="M98.0957 212.905L128.644 210.936C130.061 210.843 131.482 211.031 132.825 211.489C134.169 211.947 135.409 212.665 136.475 213.604C137.54 214.542 138.41 215.682 139.033 216.957C139.657 218.232 140.024 219.618 140.111 221.036L140.966 233.874" stroke="#263238" stroke-linecap="round" stroke-linejoin="round"/>
<path d="M202.363 206.187L172.2 208.112C169.342 208.299 166.675 209.611 164.783 211.761C162.89 213.91 161.927 216.722 162.102 219.581L162.958 232.419" stroke="#263238" stroke-linecap="round" stroke-linejoin="round"/>
<path d="M103.23 291.989L133.779 290.02C135.192 289.928 136.573 289.558 137.843 288.931C139.114 288.305 140.248 287.434 141.182 286.369C142.115 285.304 142.83 284.065 143.285 282.724C143.74 281.383 143.926 279.965 143.833 278.551L143.021 265.713" stroke="#263238" stroke-linecap="round" stroke-linejoin="round"/>
<path d="M207.497 285.27L177.548 287.196C176.131 287.295 174.709 287.113 173.363 286.66C172.017 286.208 170.773 285.494 169.704 284.559C168.635 283.625 167.76 282.488 167.131 281.215C166.502 279.941 166.131 278.556 166.039 277.139L165.226 264.301" stroke="#263238" stroke-linecap="round" stroke-linejoin="round"/>
<path d="M100.963 254.458L136.731 252.147" stroke="#263238" stroke-linecap="round" stroke-linejoin="round"/>
<path d="M168.178 250.136L203.989 247.825" stroke="#263238" stroke-linecap="round" stroke-linejoin="round"/>
<path d="M857.313 553.581C862.848 553.247 868.27 551.634 873.266 548.835C878.262 546.037 882.732 542.108 886.416 537.278C890.1 532.447 892.925 526.811 894.726 520.697C896.528 514.582 897.271 508.111 896.912 501.659C896.553 495.207 895.099 488.902 892.634 483.111C890.17 477.32 886.744 472.157 882.555 467.923C878.367 463.689 873.499 460.468 868.235 458.447C862.971 456.426 857.415 455.644 851.89 456.149L795.167 460.424C784.088 461.257 773.746 467.191 766.417 476.921C759.089 486.65 755.373 499.378 756.087 512.304C756.801 525.23 761.887 537.295 770.226 545.846C778.565 554.397 789.474 558.732 800.553 557.899L857.313 553.581Z" fill="white"/>
<path d="M133.502 526.293L124.555 503.163C124.617 503.139 125.002 503.026 125.71 502.824C126.418 502.621 126.897 502.472 127.145 502.376C127.394 502.28 127.872 502.13 128.58 501.928C129.326 501.639 129.898 501.454 130.295 501.372C130.73 501.203 131.302 501.018 132.01 500.816C132.756 500.527 133.39 500.318 133.911 500.187C134.471 499.971 135.062 499.742 135.683 499.502C136.367 499.237 137.02 498.985 137.642 498.744C142.492 496.868 146.672 494 150.183 490.141C153.693 486.281 156.377 481.669 158.233 476.304C160.089 470.94 160.798 464.733 160.358 457.684C159.957 450.548 158.265 443.125 155.282 435.415C150.328 422.607 143.503 414.203 134.808 410.204C126.113 406.205 115.734 406.538 103.672 411.204C99.3818 412.864 93.9704 415.136 87.4377 418.02C80.881 420.843 75.9549 422.891 72.6596 424.166L60.3486 428.928L102.631 538.235L133.502 526.293ZM123.104 443.145L128.444 456.948C130.849 463.166 131.321 468.451 129.86 472.805C128.461 477.135 125.305 480.249 120.393 482.15L116.943 483.484L98.1823 434.986L102.659 433.255C107.322 431.451 111.451 431.498 115.044 433.396C118.638 435.294 121.324 438.544 123.104 443.145ZM228.173 480.129L234.369 487.275L259.923 477.39L254.498 471.126L239.814 433.167C237.169 426.327 234.463 420.905 231.699 416.899C228.91 412.831 225.688 409.86 222.032 407.986C218.415 406.026 214.357 405.237 209.858 405.619C205.336 405.939 199.966 407.301 193.748 409.706C186.722 412.424 180.229 416.151 174.27 420.886C168.286 425.56 163.709 430.082 160.54 434.454L171.415 444.829C173.297 442.671 176.152 440.352 179.981 437.87C183.786 435.325 187.616 433.308 191.471 431.817C195.948 430.085 199.482 429.611 202.073 430.396C204.726 431.157 206.786 433.434 208.253 437.226L208.903 438.905C206.789 439.723 204.618 440.67 202.389 441.747C200.161 442.823 197.694 444.206 194.988 445.896C192.282 447.586 189.761 449.384 187.424 451.288C185.125 453.107 182.959 455.267 180.924 457.77C178.866 460.21 177.265 462.723 176.121 465.31C174.978 467.897 174.344 470.787 174.221 473.98C174.074 477.11 174.626 480.292 175.876 483.525C182.298 500.127 193.903 505.18 210.691 498.686C213.178 497.724 215.458 496.413 217.532 494.753C219.631 493.155 221.296 491.546 222.527 489.926C223.821 488.282 224.898 486.722 225.756 485.246C226.677 483.746 227.304 482.503 227.637 481.516L228.173 480.129ZM218.424 476.824C213.139 478.868 208.993 476.004 205.987 468.232C204.303 463.88 204.184 460.245 205.628 457.327C207.049 454.347 209.656 452.124 213.449 450.657L222.107 473.04C222.107 473.04 221.993 473.299 221.764 473.816C221.511 474.272 221.084 474.83 220.482 475.492C219.918 476.067 219.232 476.511 218.424 476.824ZM319.889 491.078C332.138 486.34 339.742 479.109 342.7 469.387C345.658 459.665 344.48 447.934 339.164 434.193L312.72 365.829L277.186 379.575L281.334 390.3L287.763 391.674L304.719 435.508C304.137 436.591 303.539 437.538 302.923 438.348C302.369 439.134 301.748 439.838 301.06 440.462C300.348 441.023 299.588 441.46 298.779 441.773C296.044 442.831 293.957 442.888 292.519 441.943C291.12 440.912 289.867 438.966 288.76 436.106L268.232 383.038L234.284 396.17L238.432 406.896L243.089 408.955L255.896 442.064C260.659 454.375 265.946 462.408 271.759 466.164C277.548 469.857 285.075 469.912 294.339 466.329C296.764 465.391 298.935 463.979 300.85 462.095C302.828 460.186 304.361 458.235 305.448 456.241C306.512 454.186 307.401 452.234 308.115 450.385C308.868 448.45 309.362 446.865 309.599 445.629L309.955 443.776L313.057 451.797C314.438 455.552 315.249 458.848 315.489 461.686C315.729 464.524 315.398 466.903 314.497 468.824C313.621 470.808 312.389 472.428 310.802 473.685C309.215 474.942 307.179 476.051 304.691 477.014C296.857 480.044 290.74 481.231 286.34 480.574L285.387 492.523C289.225 494.684 294.334 495.602 300.713 495.279C307.093 494.955 313.485 493.555 319.889 491.078ZM385.701 428.736L376.754 405.606C376.816 405.582 377.201 405.469 377.909 405.266C378.617 405.064 379.095 404.915 379.344 404.819C379.593 404.722 380.071 404.573 380.779 404.371C381.525 404.082 382.097 403.897 382.494 403.815C382.929 403.646 383.501 403.461 384.209 403.258C384.955 402.97 385.589 402.76 386.11 402.63C386.67 402.414 387.26 402.185 387.882 401.945C388.566 401.68 389.219 401.428 389.841 401.187C394.691 399.311 398.871 396.443 402.381 392.583C405.892 388.723 408.575 384.111 410.432 378.747C412.288 373.383 412.997 367.176 412.557 360.126C412.156 352.991 410.464 345.568 407.481 337.858C402.527 325.049 395.702 316.646 387.007 312.647C378.312 308.648 367.933 308.981 355.871 313.647C351.581 315.307 346.169 317.579 339.636 320.463C333.08 323.285 328.154 325.334 324.858 326.608L312.547 331.371L354.83 440.678L385.701 428.736ZM375.303 345.588L380.642 359.391C383.047 365.608 383.52 370.894 382.058 375.248C380.66 379.577 377.504 382.692 372.592 384.592L369.141 385.927L350.381 337.429L354.858 335.698C359.521 333.894 363.649 333.941 367.243 335.839C370.836 337.737 373.523 340.986 375.303 345.588ZM480.372 382.572L486.567 389.718L512.122 379.833L506.697 373.568L492.013 335.609C489.367 328.77 486.662 323.347 483.898 319.342C481.109 315.274 477.887 312.303 474.231 310.429C470.613 308.469 466.555 307.68 462.057 308.062C457.534 308.381 452.164 309.744 445.947 312.149C438.921 314.867 432.428 318.594 426.468 323.329C420.485 328.003 415.908 332.525 412.738 336.896L423.614 347.271C425.496 345.114 428.351 342.794 432.18 340.312C435.985 337.768 439.815 335.751 443.67 334.259C448.147 332.528 451.681 332.054 454.272 332.839C456.925 333.6 458.985 335.876 460.452 339.669L461.102 341.348C458.988 342.166 456.816 343.113 454.588 344.189C452.36 345.266 449.892 346.649 447.187 348.339C444.481 350.029 441.959 351.826 439.623 353.731C437.324 355.549 435.157 357.71 433.123 360.212C431.065 362.653 429.464 365.166 428.32 367.753C427.176 370.34 426.543 373.23 426.42 376.422C426.273 379.553 426.825 382.735 428.075 385.968C434.497 402.569 446.102 407.623 462.89 401.129C465.377 400.167 467.657 398.856 469.731 397.196C471.829 395.598 473.494 393.989 474.726 392.369C476.02 390.724 477.096 389.164 477.955 387.689C478.876 386.189 479.503 384.945 479.836 383.959L480.372 382.572ZM470.623 379.267C465.338 381.311 461.192 378.447 458.186 370.675C456.502 366.323 456.383 362.688 457.827 359.77C459.248 356.79 461.855 354.567 465.647 353.099L474.306 375.483C474.306 375.483 474.192 375.742 473.963 376.259C473.71 376.714 473.283 377.273 472.681 377.934C472.117 378.51 471.431 378.954 470.623 379.267ZM520.412 376.626L550.817 364.865L503.555 242.687L497.493 245.032L469.359 261.276L472.714 269.95L479.609 271.143L520.412 376.626Z" fill="white"/>
<path d="M421.232 170.996L420.279 156.461L429.303 156.537L428.762 148.288L419.781 148.877L419.187 139.83L430.174 139.777L429.618 131.296L407.665 132.736L410.223 171.719L421.232 170.996ZM448.398 165.907C446.358 166.041 445.2 164.012 444.925 159.821L444.216 149.011C444.123 147.592 444.317 146.477 444.798 145.666C445.279 144.855 445.997 144.418 446.95 144.355C448.99 144.221 450.152 146.317 450.436 150.641L451.126 161.151C451.219 162.57 451.026 163.708 450.548 164.563C450.09 165.395 449.373 165.843 448.398 165.907ZM448.394 169.916C453.649 169.571 457.416 168.099 459.695 165.5C461.997 162.899 462.98 159.048 462.645 153.948C462.322 149.025 460.917 145.432 458.43 143.168C455.964 140.88 452.126 139.907 446.915 140.249C441.571 140.6 437.796 142.128 435.59 144.834C433.384 147.517 432.445 151.365 432.774 156.376C433.105 161.432 434.522 165.036 437.024 167.188C439.526 169.34 443.316 170.249 448.394 169.916ZM477.949 167.275L476.951 152.074C477.516 150.835 478.929 150.14 481.191 149.992C482.765 149.889 483.799 150.032 484.292 150.423L484.646 138.508C484.034 138.348 483.451 138.286 482.897 138.322C477.974 138.645 475.236 141.553 474.684 147.045L473.2 139.192L470.505 139.369L463.47 141.601L463.717 145.36L465.793 146.459L467.205 167.98L477.949 167.275ZM499.874 165.836L498.602 146.444C498.643 146.397 498.716 146.326 498.821 146.23C498.947 146.11 499.031 146.027 499.072 145.979C499.136 145.931 499.22 145.858 499.325 145.762C499.451 145.643 499.546 145.558 499.609 145.51C499.673 145.461 499.758 145.4 499.865 145.326C499.97 145.23 500.066 145.168 500.153 145.14C500.239 145.09 500.336 145.039 500.444 144.987C500.572 144.912 500.68 144.86 500.768 144.832C500.877 144.803 500.986 144.774 501.096 144.744C501.227 144.713 501.36 144.693 501.493 144.685C503.333 144.564 504.289 145.548 504.359 147.637L505.529 165.465L516.505 164.745L515.462 148.846C515.38 147.604 515.271 146.453 515.135 145.393C516.174 144.256 517.015 143.666 517.658 143.624C518.611 143.561 519.339 143.792 519.841 144.316C520.343 144.84 520.626 145.589 520.69 146.565L521.86 164.393L532.67 163.684L531.564 146.82C531.357 143.671 530.931 141.25 530.285 139.555C529.64 137.86 528.706 136.697 527.484 136.064C526.283 135.408 524.64 135.149 522.556 135.285C520.671 135.409 518.979 136.099 517.48 137.355C516.002 138.588 514.929 139.883 514.261 141.241C513.648 139.366 512.727 138.046 511.496 137.28C510.265 136.515 508.541 136.205 506.324 136.35C505.459 136.407 504.595 136.642 503.731 137.055C502.888 137.444 502.17 137.87 501.577 138.332C501.006 138.793 500.45 139.319 499.91 139.911C499.37 140.504 498.998 140.94 498.793 141.221C498.61 141.478 498.468 141.687 498.367 141.85L498.086 137.559L492.431 137.93L485.408 140.362L485.642 143.921L487.718 145.021L489.131 166.541L499.874 165.836ZM551.054 159.505L552.313 162.395L561.427 161.797L560.325 159.264L559.437 145.726C559.277 143.287 558.957 141.292 558.476 139.743C557.995 138.171 557.266 136.905 556.29 135.945C555.334 134.961 554.122 134.305 552.653 133.978C551.183 133.629 549.339 133.528 547.121 133.673C544.615 133.838 542.179 134.376 539.811 135.289C537.442 136.179 535.536 137.162 534.092 138.236L536.518 142.62C537.331 142.121 538.471 141.668 539.936 141.26C541.4 140.83 542.819 140.57 544.194 140.48C545.79 140.375 546.962 140.576 547.708 141.084C548.476 141.59 548.904 142.52 548.993 143.873L549.032 144.471C548.278 144.521 547.493 144.606 546.677 144.726C545.861 144.846 544.939 145.041 543.909 145.309C542.88 145.577 541.899 145.897 540.966 146.27C540.054 146.619 539.149 147.091 538.253 147.684C537.355 148.255 536.595 148.895 535.974 149.604C535.352 150.313 534.863 151.169 534.505 152.172C534.147 153.154 534.005 154.221 534.081 155.374C534.469 161.294 537.657 164.058 543.644 163.665C544.531 163.607 545.387 163.417 546.212 163.096C547.039 162.797 547.729 162.451 548.282 162.058C548.858 161.664 549.356 161.275 549.776 160.891C550.218 160.506 550.541 160.173 550.746 159.892L551.054 159.505ZM548.283 157.482C546.398 157.605 545.364 156.281 545.183 153.509C545.081 151.957 545.405 150.789 546.155 150.005C546.904 149.199 547.955 148.751 549.307 148.662L549.831 156.645C549.831 156.645 549.769 156.716 549.645 156.858C549.519 156.977 549.327 157.112 549.07 157.263C548.833 157.39 548.571 157.463 548.283 157.482ZM596.693 159.483L605.175 158.926L602.315 115.353L599.721 115.524L588.055 117.959L588.295 121.618L592.035 122.609L592.696 132.687C591.847 132.297 590.846 131.984 589.695 131.748C588.544 131.512 587.248 131.441 585.806 131.536C583.389 131.694 581.371 132.495 579.75 133.937C578.13 135.38 576.993 137.225 576.339 139.473C575.683 141.698 575.447 144.208 575.63 147.002C575.923 151.459 577.005 154.884 578.877 157.278C580.749 159.672 583.514 160.748 587.173 160.508C588.126 160.446 589.027 160.253 589.874 159.93C590.721 159.607 591.422 159.25 591.975 158.857C592.528 158.464 593.045 158.019 593.524 157.519C594.002 156.998 594.342 156.575 594.543 156.25C594.767 155.923 594.957 155.599 595.114 155.277L596.693 159.483ZM591.601 153.67C590.47 153.745 589.504 153.273 588.703 152.257C587.901 151.241 587.432 149.69 587.295 147.606L586.989 142.949C586.715 138.424 588.051 136.054 590.999 135.838C591.576 135.8 592.213 135.837 592.91 135.947L594.008 152.677C593.626 152.97 593.23 153.207 592.819 153.39C592.406 153.551 592 153.644 591.601 153.67ZM623.478 140.455L618.423 140.786L618.239 137.992C618.187 137.194 618.166 136.539 618.177 136.026C618.209 135.489 618.308 134.97 618.476 134.469C618.642 133.946 618.928 133.56 619.335 133.311C619.74 133.039 620.276 132.882 620.941 132.838C621.717 132.787 622.288 133.34 622.653 134.496C623.018 135.652 623.294 137.639 623.478 140.455ZM621.992 158.524C623.322 158.437 624.709 158.19 626.152 157.784C627.595 157.377 629.075 156.679 630.591 155.688C632.128 154.674 633.263 153.475 633.996 152.091L631.813 148.86C631.23 149.478 630.487 150.027 629.583 150.51C628.702 150.991 627.813 151.361 626.917 151.62C626.043 151.878 625.218 152.032 624.442 152.083C623.644 152.136 622.963 152.113 622.4 152.017C621.837 151.92 621.276 151.69 620.718 151.325C620.159 150.961 619.708 150.367 619.365 149.544C619.043 148.718 618.84 147.652 618.754 146.343L618.712 145.711L633.913 144.714L633.671 141.022C633.372 136.476 632.214 133.245 630.195 131.329C628.175 129.39 624.981 128.564 620.612 128.851C616.067 129.149 612.613 130.656 610.253 133.372C607.892 136.088 606.875 139.93 607.201 144.897C607.338 146.981 607.706 148.861 608.306 150.537C608.904 152.19 609.769 153.659 610.9 154.943C612.053 156.226 613.564 157.184 615.431 157.819C617.321 158.452 619.508 158.687 621.992 158.524ZM662.315 155.177L661.774 146.928C661.796 146.926 661.93 146.929 662.176 146.935C662.421 146.941 662.588 146.941 662.677 146.935C662.765 146.929 662.932 146.93 663.178 146.936C663.444 146.918 663.644 146.916 663.779 146.93C663.934 146.92 664.134 146.918 664.38 146.924C664.646 146.906 664.868 146.903 665.047 146.913C665.247 146.9 665.457 146.886 665.679 146.872C665.923 146.856 666.156 146.841 666.377 146.826C668.107 146.713 669.722 146.217 671.224 145.339C672.725 144.461 674.038 143.261 675.163 141.74C676.288 140.218 677.132 138.315 677.695 136.029C678.278 133.719 678.479 131.189 678.299 128.439C677.999 123.871 676.666 120.518 674.298 118.38C671.931 116.241 668.597 115.313 664.295 115.595C662.765 115.696 660.817 115.879 658.451 116.146C656.085 116.39 654.314 116.551 653.138 116.628L648.748 116.916L651.306 155.899L662.315 155.177ZM667.293 127.692L667.616 132.614C667.762 134.832 667.385 136.56 666.487 137.8C665.61 139.037 664.296 139.714 662.544 139.829L661.314 139.909L660.179 122.613L661.775 122.509C663.438 122.399 664.747 122.826 665.701 123.788C666.655 124.749 667.185 126.051 667.293 127.692ZM697.029 149.926L698.288 152.816L707.402 152.218L706.3 149.685L705.412 136.147C705.252 133.708 704.932 131.714 704.451 130.164C703.97 128.592 703.241 127.326 702.265 126.366C701.309 125.382 700.097 124.726 698.628 124.4C697.158 124.051 695.314 123.949 693.096 124.094C690.591 124.259 688.154 124.797 685.786 125.71C683.417 126.6 681.511 127.583 680.067 128.657L682.493 133.041C683.306 132.542 684.446 132.089 685.911 131.681C687.375 131.251 688.794 130.991 690.169 130.901C691.766 130.796 692.937 130.997 693.683 131.505C694.451 132.012 694.879 132.941 694.968 134.294L695.007 134.892C694.254 134.942 693.468 135.027 692.652 135.147C691.836 135.268 690.914 135.462 689.885 135.73C688.855 135.998 687.874 136.318 686.941 136.691C686.029 137.041 685.124 137.512 684.228 138.105C683.33 138.676 682.57 139.316 681.949 140.025C681.327 140.734 680.838 141.59 680.481 142.594C680.122 143.575 679.98 144.642 680.056 145.795C680.444 151.715 683.632 154.479 689.619 154.086C690.506 154.028 691.362 153.838 692.188 153.517C693.014 153.218 693.704 152.872 694.257 152.479C694.833 152.085 695.331 151.696 695.751 151.312C696.193 150.927 696.517 150.594 696.721 150.313L697.029 149.926ZM694.258 147.903C692.373 148.026 691.34 146.702 691.158 143.931C691.056 142.378 691.38 141.21 692.13 140.426C692.879 139.62 693.93 139.172 695.282 139.083L695.806 147.066C695.806 147.066 695.744 147.137 695.62 147.279C695.494 147.399 695.302 147.534 695.045 147.684C694.808 147.811 694.546 147.884 694.258 147.903ZM724.301 162.901C733.525 162.296 737.854 157.669 737.286 149.021L735.828 126.802L737.732 125.274L737.527 122.148L731.254 122.259L726.165 122.593L725.702 124.193C723.604 123.106 721.181 122.652 718.431 122.833C716.613 122.952 715.008 123.447 713.618 124.318C712.226 125.166 711.12 126.297 710.3 127.709C709.5 129.098 708.925 130.694 708.576 132.499C708.225 134.281 708.119 136.215 708.255 138.299C708.548 142.756 709.63 146.181 711.502 148.575C713.374 150.969 716.139 152.046 719.798 151.805C722.503 151.628 724.734 150.502 726.491 148.427L726.676 151.254C726.686 151.743 726.671 152.19 726.631 152.593C726.613 152.995 726.509 153.447 726.319 153.95C726.131 154.474 725.87 154.915 725.537 155.27C725.205 155.649 724.714 155.97 724.064 156.236C723.437 156.522 722.68 156.694 721.793 156.752C720.906 156.81 719.83 156.703 718.565 156.43C717.3 156.156 716.376 155.827 715.794 155.442L713.998 160.137C714.687 160.804 716.144 161.454 718.368 162.088C720.593 162.744 722.571 163.015 724.301 162.901ZM724.224 145.435C722.693 145.536 721.538 144.732 720.758 143.024C720.314 142.028 720.046 140.821 719.953 139.402L719.614 134.246C719.34 129.721 720.676 127.351 723.624 127.135C724.067 127.106 724.559 127.13 725.098 127.206L726.249 144.735C725.564 145.158 724.889 145.392 724.224 145.435ZM756.18 146.044L757.438 148.935L766.552 148.337L765.45 145.803L764.562 132.266C764.402 129.827 764.082 127.832 763.602 126.282C763.12 124.711 762.391 123.445 761.415 122.484C760.459 121.5 759.247 120.845 757.778 120.518C756.308 120.169 754.464 120.067 752.246 120.213C749.741 120.377 747.304 120.916 744.937 121.828C742.568 122.719 740.661 123.701 739.217 124.776L741.643 129.16C742.456 128.661 743.596 128.208 745.061 127.8C746.525 127.37 747.944 127.109 749.319 127.019C750.916 126.915 752.087 127.116 752.833 127.624C753.601 128.13 754.03 129.06 754.118 130.412L754.158 131.011C753.404 131.06 752.619 131.145 751.803 131.266C750.986 131.386 750.064 131.58 749.035 131.848C748.006 132.116 747.025 132.437 746.091 132.81C745.179 133.159 744.275 133.63 743.378 134.224C742.48 134.795 741.721 135.435 741.099 136.144C740.477 136.853 739.988 137.709 739.631 138.712C739.272 139.693 739.13 140.76 739.206 141.913C739.595 147.834 742.782 150.598 748.769 150.205C749.656 150.147 750.513 149.957 751.338 149.636C752.164 149.336 752.854 148.991 753.408 148.598C753.983 148.204 754.481 147.815 754.901 147.431C755.343 147.046 755.667 146.713 755.871 146.432L756.18 146.044ZM753.408 144.021C751.523 144.145 750.49 142.821 750.308 140.049C750.206 138.497 750.53 137.329 751.28 136.545C752.029 135.738 753.08 135.291 754.433 135.202L754.956 143.185C754.956 143.185 754.894 143.256 754.77 143.398C754.644 143.517 754.453 143.652 754.195 143.803C753.959 143.93 753.696 144.002 753.408 144.021ZM780.618 147.414L779.346 128.022C779.387 127.975 779.46 127.903 779.565 127.807C779.691 127.688 779.775 127.604 779.816 127.557C779.88 127.508 779.964 127.436 780.069 127.34C780.195 127.22 780.29 127.136 780.353 127.087C780.417 127.039 780.502 126.977 780.608 126.904C780.713 126.808 780.81 126.746 780.897 126.718C780.983 126.667 781.08 126.617 781.187 126.565C781.316 126.49 781.424 126.438 781.511 126.41C781.621 126.381 781.73 126.351 781.84 126.322C781.971 126.291 782.104 126.271 782.237 126.262C784.077 126.141 785.032 127.125 785.103 129.214L786.273 147.043L797.249 146.322L796.206 130.423C796.124 129.181 796.015 128.03 795.879 126.97C796.918 125.833 797.759 125.244 798.402 125.201C799.355 125.139 800.083 125.37 800.585 125.893C801.087 126.417 801.37 127.167 801.434 128.143L802.604 145.971L813.414 145.262L812.308 128.398C812.101 125.249 811.675 122.827 811.029 121.133C810.383 119.438 809.45 118.274 808.228 117.642C807.027 116.986 805.384 116.726 803.3 116.863C801.415 116.987 799.723 117.677 798.224 118.933C796.746 120.166 795.673 121.461 795.005 122.819C794.392 120.944 793.47 119.624 792.24 118.858C791.009 118.092 789.285 117.782 787.068 117.928C786.203 117.985 785.339 118.22 784.475 118.633C783.632 119.022 782.914 119.448 782.321 119.91C781.75 120.37 781.194 120.897 780.654 121.489C780.114 122.081 779.742 122.518 779.537 122.798C779.354 123.055 779.212 123.265 779.111 123.427L778.829 119.137L773.175 119.508L766.152 121.939L766.386 125.498L768.462 126.598L769.875 148.119L780.618 147.414ZM831.43 126.809L826.374 127.141L826.19 124.347C826.138 123.548 826.117 122.893 826.128 122.38C826.16 121.843 826.259 121.325 826.427 120.824C826.593 120.301 826.879 119.914 827.286 119.665C827.691 119.393 828.227 119.236 828.892 119.192C829.668 119.141 830.239 119.694 830.604 120.85C830.97 122.007 831.245 123.993 831.43 126.809ZM829.943 144.878C831.273 144.791 832.66 144.544 834.103 144.138C835.546 143.731 837.026 143.033 838.542 142.043C840.079 141.029 841.214 139.83 841.947 138.445L839.764 135.215C839.181 135.832 838.438 136.382 837.534 136.864C836.653 137.345 835.764 137.715 834.868 137.974C833.994 138.232 833.169 138.387 832.393 138.438C831.595 138.49 830.914 138.468 830.351 138.371C829.788 138.274 829.227 138.044 828.669 137.68C828.11 137.316 827.659 136.722 827.316 135.898C826.994 135.073 826.791 134.006 826.705 132.698L826.663 132.066L841.864 131.068L841.622 127.376C841.324 122.83 840.165 119.599 838.146 117.683C836.126 115.744 832.932 114.918 828.564 115.205C824.018 115.503 820.565 117.01 818.204 119.726C815.843 122.442 814.826 126.284 815.152 131.251C815.289 133.335 815.657 135.215 816.257 136.891C816.856 138.544 817.72 140.013 818.851 141.297C820.004 142.58 821.515 143.539 823.383 144.173C825.273 144.806 827.459 145.041 829.943 144.878ZM857.016 142.4L855.744 123.009C855.785 122.961 855.858 122.89 855.964 122.794C856.089 122.674 856.173 122.591 856.214 122.544C856.278 122.495 856.362 122.423 856.467 122.327C856.593 122.207 856.688 122.123 856.751 122.074C856.815 122.025 856.9 121.964 857.007 121.89C857.112 121.794 857.208 121.732 857.295 121.704C857.381 121.654 857.478 121.603 857.586 121.552C857.714 121.476 857.822 121.425 857.91 121.397C858.019 121.367 858.128 121.338 858.238 121.308C858.369 121.278 858.502 121.258 858.635 121.249C860.475 121.128 861.431 122.112 861.501 124.201L862.671 142.029L873.647 141.309L872.541 124.445C872.53 124.29 872.528 124.079 872.532 123.811C872.515 123.545 872.502 123.345 872.493 123.212C872.237 119.31 871.422 116.568 870.049 114.988C868.698 113.407 866.504 112.715 863.466 112.915C862.601 112.972 861.726 113.207 860.84 113.622C859.975 114.012 859.237 114.473 858.626 115.003C858.013 115.511 857.457 116.026 856.957 116.549C856.479 117.07 856.118 117.517 855.876 117.889L855.509 118.414L855.228 114.123L849.573 114.495L842.551 116.926L842.784 120.485L844.861 121.585L846.273 143.105L857.016 142.4ZM885.675 141.221C887.182 141.122 888.535 140.867 889.733 140.454C890.953 140.04 891.819 139.66 892.331 139.315C892.841 138.947 893.252 138.586 893.562 138.232L893.266 133.708C893.035 133.924 892.734 134.099 892.365 134.235C891.995 134.371 891.577 134.454 891.112 134.484C890.047 134.554 889.241 134.317 888.693 133.774C888.146 133.231 887.813 132.073 887.697 130.299L886.885 117.925L892.44 117.561L892.056 111.707L886.601 112.065L886.092 104.315L880.238 104.699L877.354 112.672L873.51 114.16L873.813 118.783L876.108 118.633L876.85 129.942C877.131 134.221 877.918 137.221 879.211 138.94C880.527 140.657 882.681 141.418 885.675 141.221ZM910.003 135.616C907.963 135.75 906.805 133.722 906.53 129.531L905.821 118.721C905.728 117.301 905.922 116.186 906.403 115.375C906.884 114.564 907.602 114.127 908.555 114.065C910.595 113.931 911.757 116.026 912.041 120.35L912.73 130.861C912.824 132.28 912.631 133.417 912.153 134.273C911.695 135.104 910.978 135.552 910.003 135.616ZM909.999 139.625C915.254 139.28 919.021 137.808 921.3 135.209C923.602 132.608 924.585 128.758 924.25 123.658C923.927 118.735 922.522 115.141 920.035 112.877C917.569 110.589 913.73 109.616 908.519 109.958C903.175 110.309 899.401 111.837 897.195 114.543C894.989 117.227 894.05 121.074 894.378 126.086C894.71 131.141 896.127 134.745 898.629 136.897C901.131 139.049 904.921 139.958 909.999 139.625Z" fill="white"/>
</svg>
